<svg width="50" height="62" viewBox="0 0 50 62" fill="none" xmlns="http://www.w3.org/2000/svg">
<path d="M47.1003 -0.000488281H42.2916C41.79 -0.000488281 41.3834 0.406144 41.3834 0.907715C41.3834 1.40929 41.79 1.81592 42.2916 1.81592H47.1003C47.2668 1.81592 47.4023 1.95179 47.4023 2.11865V24.0366H2.59766V2.11865C2.59766 1.95179 2.73316 1.81592 2.89966 1.81592H38.0192C38.5207 1.81592 38.9274 1.40929 38.9274 0.907715C38.9274 0.406144 38.5207 -0.000488281 38.0192 -0.000488281H2.89966C1.73159 -0.000488281 0.78125 0.950219 0.78125 2.11865V26.932C0.78125 27.4335 1.18788 27.8402 1.68945 27.8402C2.19102 27.8402 2.59766 27.4335 2.59766 26.932V25.853H47.4023V59.8804C47.4023 60.0472 47.2668 60.1831 47.1003 60.1831H42.2046C41.7031 60.1831 41.2964 60.5897 41.2964 61.0913C41.2964 61.5929 41.7031 61.9995 42.2046 61.9995H47.1003C48.2684 61.9995 49.2188 61.0488 49.2188 59.8804V2.11865C49.2188 0.950219 48.2684 -0.000488281 47.1003 -0.000488281Z" fill="black"/>
<path d="M37.957 60.1832H2.89966C2.73316 60.1832 2.59766 60.0473 2.59766 59.8804V31.2045C2.59766 30.7029 2.19102 30.2963 1.68945 30.2963C1.18788 30.2963 0.78125 30.7029 0.78125 31.2045V59.8804C0.78125 61.0489 1.73159 61.9996 2.89966 61.9996H37.957C38.4586 61.9996 38.8652 61.593 38.8652 61.0914C38.8652 60.5898 38.4586 60.1832 37.957 60.1832Z" fill="black"/>
<path d="M18.7031 5.87256C17.4906 5.87256 16.3504 6.34507 15.4926 7.20289C14.6346 8.06084 14.1621 9.20106 14.1621 10.4136C14.1621 12.9176 16.1991 14.9546 18.7031 14.9546H31.2969C32.5093 14.9546 33.6495 14.4821 34.5074 13.6241C35.3654 12.7662 35.8379 11.626 35.8379 10.4136C35.8379 7.9096 33.8008 5.87256 31.2969 5.87256H18.7031ZM34.0215 10.4136C34.0215 11.1409 33.7379 11.8249 33.2231 12.3398C32.7082 12.8546 32.0242 13.1382 31.2969 13.1382H18.7031C17.2007 13.1382 15.9785 11.916 15.9785 10.4136C15.9785 9.68629 16.262 9.00223 16.777 8.48734C17.2918 7.97245 17.9758 7.68896 18.7031 7.68896H31.2969C32.7993 7.68896 34.0215 8.91116 34.0215 10.4136Z" fill="black"/>
<path d="M8.99983 34.0929H9.94118V36.4966H12.4914V34.0929H13.4327V39.884H12.4914V37.4432H9.94118V39.884H8.99983V34.0929Z" fill="black"/>
<path d="M14.6568 36.9878C14.6568 35.3545 15.8121 33.9995 17.4552 33.9995C19.0983 33.9995 20.2365 35.3452 20.2365 36.9878C20.2365 38.612 19.0812 39.9762 17.4381 39.9762C15.795 39.9762 14.6568 38.6305 14.6568 36.9878ZM19.2523 36.9878C19.2523 35.8649 18.4992 34.9276 17.4381 34.9276C16.3769 34.9276 15.641 35.8463 15.641 36.9878C15.641 38.1108 16.394 39.0481 17.4552 39.0481C18.5164 39.0389 19.2523 38.1201 19.2523 36.9878Z" fill="black"/>
<path d="M20.7675 34.0926H21.7773L23.0524 38.3803L24.3617 34.0741H25.1576L26.467 38.3803L27.7421 34.0926H28.7262L26.8692 39.9208H26.0647L24.7554 35.7631L23.4461 39.9208H22.6416L20.7675 34.0926Z" fill="black"/>
<path d="M10.6943 46.0536H8.99983V45.107H13.3301V46.0536H11.6356V50.8981H10.6943V46.0536Z" fill="black"/>
<path d="M13.8948 48.0112C13.8948 46.3778 15.0501 45.0228 16.6932 45.0228C18.3362 45.0228 19.4744 46.3685 19.4744 48.0112C19.4744 49.6352 18.3191 50.9995 16.676 50.9995C15.0415 50.9995 13.8948 49.6538 13.8948 48.0112ZM18.4903 48.0112C18.4903 46.8882 17.7372 45.9509 16.676 45.9509C15.6149 45.9509 14.8789 46.8696 14.8789 48.0112C14.8789 49.1341 15.632 50.0714 16.6932 50.0714C17.7543 50.0622 18.4903 49.1434 18.4903 48.0112Z" fill="black"/>
<path d="M23.2057 45.1162H27.1594V46.0257H24.1385V47.5292H26.8171V48.4387H24.1385V49.9885H27.1936V50.898H23.2057V45.1162Z" fill="black"/>
<path d="M30.3771 45.0693H31.25L33.5948 50.8975H32.6021L32.0629 49.4962H29.5384L28.9908 50.8975H28.0323L30.3771 45.0693ZM31.7206 48.6052L30.7964 46.2944L29.8807 48.6052H31.7206Z" fill="black"/>
<path d="M33.4748 46.0533V45.1066H37.805V46.0533H36.1106V50.8978H35.1692V46.0533H33.4748Z" fill="black"/>
</svg>
