<svg width="40" height="40" viewBox="0 0 40 40" fill="none" xmlns="http://www.w3.org/2000/svg">
<g clip-path="url(#clip0)">
<path d="M38.338 17.4253C38.1345 17.3058 37.883 17.3027 37.6767 17.4173L35.842 18.4367L35.3334 0.648C35.3233 0.287083 35.0277 -0.000166594 34.6667 7.249e-08H30C29.639 -0.000166594 29.3435 0.287083 29.3334 0.648L28.712 22.4L26.6667 23.5333V18C26.6665 17.6318 26.3679 17.3335 25.9997 17.3337C25.8867 17.3337 25.7755 17.3625 25.6767 17.4173L14.6667 23.5333V18C14.6665 17.6318 14.3679 17.3335 13.9997 17.3337C13.8867 17.3337 13.7755 17.3625 13.6767 17.4173L1.67671 24.084C1.46496 24.2014 1.33346 24.4245 1.33337 24.6667V39.3333C1.33337 39.7015 1.63187 40 2.00004 40H38C38.3682 40 38.6667 39.7015 38.6667 39.3333V18C38.6667 17.7638 38.5417 17.5451 38.338 17.4253ZM30.648 1.33333H34.0187L34.0574 2.66667H30.61L30.648 1.33333ZM30.5714 4H34.0954L34.5287 19.166L30.0667 21.644L30.5714 4ZM19.3334 38.6667H15.3334V35.3333H19.3334V38.6667ZM24.6667 38.6667H20.6667V35.3333H24.6667V38.6667ZM37.3334 38.6667H26V34.6667C26 34.2985 25.7015 34 25.3334 34H14.6667C14.2985 34 14 34.2985 14 34.6667V38.6667H2.66671V25.0593L13.3334 19.1333V24.6667C13.3335 25.0348 13.6322 25.3332 14.0004 25.333C14.1134 25.3329 14.2245 25.3042 14.3234 25.2493L25.3334 19.1333V24.6667C25.3335 25.0348 25.6322 25.3332 26.0004 25.333C26.1134 25.3329 26.2245 25.3042 26.3234 25.2493L32.6107 21.7567L35.5334 20.1333L37.3334 19.1333V38.6667Z" fill="black"/>
</g>
<defs>
<clipPath id="clip0">
<rect width="40" height="40" fill="white"/>
</clipPath>
</defs>
</svg>
