<svg width="50" height="50" viewBox="0 0 50 50" fill="none" xmlns="http://www.w3.org/2000/svg">
<mask id="path-1-inside-1" fill="white">
<path fill-rule="evenodd" clip-rule="evenodd" d="M0.833301 10.4167H32.5C32.9608 10.4167 33.3333 10.7901 33.3333 11.25V16.25H41.6664C41.9498 16.25 42.214 16.3941 42.3673 16.6325L49.8673 28.2992C49.954 28.4333 49.9998 28.5908 49.9997 28.75V37.9167C49.9997 38.3775 49.6272 38.75 49.1664 38.75H44.9306C44.5329 41.1121 42.4737 42.9167 40 42.9167C37.5263 42.9167 35.4671 41.1121 35.0694 38.7499H32.5141C32.5094 38.75 32.5047 38.75 32.5 38.75H16.5971C16.1994 41.1121 14.1402 42.9167 11.6665 42.9167C9.19285 42.9167 7.13365 41.1121 6.73591 38.75H0.833301C0.37334 38.75 0 38.3776 0 37.9167V11.25C0 10.7901 0.37334 10.4167 0.833301 10.4167ZM6.73592 37.0833C7.13367 34.7212 9.19286 32.9167 11.6665 32.9167C14.1401 32.9167 16.1993 34.7212 16.5971 37.0833H31.6665V17.0833C31.6665 17.0772 31.6666 17.0712 31.6667 17.0651V12.0833H1.6667V37.0833H6.73592ZM33.3333 37.0832H35.0694C35.4672 34.7212 37.5264 32.9167 40 32.9167C42.4737 32.9167 44.5329 34.7213 44.9306 37.0834H48.3331V28.995L41.2114 17.9167H33.3333V37.0832ZM8.3332 37.9167C8.3332 39.755 9.82813 41.25 11.6665 41.25C13.5048 41.25 14.9998 39.755 14.9998 37.9167C14.9998 36.0784 13.5048 34.5834 11.6665 34.5834C9.82822 34.5834 8.3332 36.0783 8.3332 37.9167ZM36.6667 37.9167C36.6667 39.755 38.1616 41.25 40 41.25C41.8384 41.25 43.3333 39.755 43.3333 37.9167C43.3333 36.0784 41.8384 34.5834 40 34.5834C38.1617 34.5834 36.6667 36.0783 36.6667 37.9167Z"/>
</mask>
<path fill-rule="evenodd" clip-rule="evenodd" d="M0.833301 10.4167H32.5C32.9608 10.4167 33.3333 10.7901 33.3333 11.25V16.25H41.6664C41.9498 16.25 42.214 16.3941 42.3673 16.6325L49.8673 28.2992C49.954 28.4333 49.9998 28.5908 49.9997 28.75V37.9167C49.9997 38.3775 49.6272 38.75 49.1664 38.75H44.9306C44.5329 41.1121 42.4737 42.9167 40 42.9167C37.5263 42.9167 35.4671 41.1121 35.0694 38.7499H32.5141C32.5094 38.75 32.5047 38.75 32.5 38.75H16.5971C16.1994 41.1121 14.1402 42.9167 11.6665 42.9167C9.19285 42.9167 7.13365 41.1121 6.73591 38.75H0.833301C0.37334 38.75 0 38.3776 0 37.9167V11.25C0 10.7901 0.37334 10.4167 0.833301 10.4167ZM6.73592 37.0833C7.13367 34.7212 9.19286 32.9167 11.6665 32.9167C14.1401 32.9167 16.1993 34.7212 16.5971 37.0833H31.6665V17.0833C31.6665 17.0772 31.6666 17.0712 31.6667 17.0651V12.0833H1.6667V37.0833H6.73592ZM33.3333 37.0832H35.0694C35.4672 34.7212 37.5264 32.9167 40 32.9167C42.4737 32.9167 44.5329 34.7213 44.9306 37.0834H48.3331V28.995L41.2114 17.9167H33.3333V37.0832ZM8.3332 37.9167C8.3332 39.755 9.82813 41.25 11.6665 41.25C13.5048 41.25 14.9998 39.755 14.9998 37.9167C14.9998 36.0784 13.5048 34.5834 11.6665 34.5834C9.82822 34.5834 8.3332 36.0783 8.3332 37.9167ZM36.6667 37.9167C36.6667 39.755 38.1616 41.25 40 41.25C41.8384 41.25 43.3333 39.755 43.3333 37.9167C43.3333 36.0784 41.8384 34.5834 40 34.5834C38.1617 34.5834 36.6667 36.0783 36.6667 37.9167Z" fill="black"/>
<path d="M33.3333 16.25H33.2333V16.35H33.3333V16.25ZM42.3673 16.6325L42.4514 16.5784L42.4514 16.5784L42.3673 16.6325ZM49.8673 28.2992L49.7832 28.3533L49.7833 28.3535L49.8673 28.2992ZM49.9997 28.75L49.8997 28.7499V28.75H49.9997ZM44.9306 38.75V38.65H44.846L44.832 38.7334L44.9306 38.75ZM35.0694 38.7499L35.168 38.7333L35.154 38.6499H35.0694V38.7499ZM32.5141 38.7499V38.6499L32.5124 38.6499L32.5141 38.7499ZM16.5971 38.75V38.65H16.5125L16.4985 38.7334L16.5971 38.75ZM6.73591 38.75L6.83452 38.7334L6.82048 38.65H6.73591V38.75ZM6.73592 37.0833V37.1833H6.82048L6.83453 37.0999L6.73592 37.0833ZM16.5971 37.0833L16.4985 37.0999L16.5125 37.1833H16.5971V37.0833ZM31.6665 37.0833V37.1833H31.7665V37.0833H31.6665ZM31.6667 17.0651L31.7667 17.0673V17.0651H31.6667ZM31.6667 12.0833H31.7667V11.9833H31.6667V12.0833ZM1.6667 12.0833V11.9833H1.5667V12.0833H1.6667ZM1.6667 37.0833H1.5667V37.1833H1.6667V37.0833ZM35.0694 37.0832V37.1832H35.154L35.168 37.0998L35.0694 37.0832ZM33.3333 37.0832H33.2333V37.1832H33.3333V37.0832ZM44.9306 37.0834L44.832 37.1L44.846 37.1834H44.9306V37.0834ZM48.3331 37.0834V37.1834H48.4331V37.0834H48.3331ZM48.3331 28.995H48.4331V28.9657L48.4172 28.9409L48.3331 28.995ZM41.2114 17.9167L41.2955 17.8626L41.266 17.8167H41.2114V17.9167ZM33.3333 17.9167V17.8167H33.2333V17.9167H33.3333ZM32.5 10.3167H0.833301V10.5167H32.5V10.3167ZM33.4333 11.25C33.4333 10.7349 33.0161 10.3167 32.5 10.3167V10.5167C32.9055 10.5167 33.2333 10.8452 33.2333 11.25H33.4333ZM33.4333 16.25V11.25H33.2333V16.25H33.4333ZM33.3333 16.35H41.6664V16.15H33.3333V16.35ZM41.6664 16.35C41.9158 16.35 42.1483 16.4769 42.2832 16.6866L42.4514 16.5784C42.2797 16.3114 41.9838 16.15 41.6664 16.15V16.35ZM42.2832 16.6866L49.7832 28.3533L49.9514 28.2451L42.4514 16.5784L42.2832 16.6866ZM49.7833 28.3535C49.8594 28.4712 49.8998 28.6098 49.8997 28.7499L50.0997 28.7501C50.0998 28.5718 50.0486 28.3954 49.9513 28.2449L49.7833 28.3535ZM49.8997 28.75V37.9167H50.0997V28.75H49.8997ZM49.8997 37.9167C49.8997 38.3223 49.572 38.65 49.1664 38.65V38.85C49.6825 38.85 50.0997 38.4328 50.0997 37.9167H49.8997ZM49.1664 38.65H44.9306V38.85H49.1664V38.65ZM44.832 38.7334C44.4422 41.0482 42.424 42.8167 40 42.8167V43.0167C42.5234 43.0167 44.6235 41.176 45.0292 38.7666L44.832 38.7334ZM40 42.8167C37.576 42.8167 35.5577 41.0482 35.168 38.7333L34.9708 38.7665C35.3764 41.176 37.4766 43.0167 40 43.0167V42.8167ZM35.0694 38.6499H32.5141V38.8499H35.0694V38.6499ZM32.5 38.85C32.5052 38.85 32.5105 38.85 32.5158 38.8499L32.5124 38.6499C32.5083 38.65 32.5042 38.65 32.5 38.65V38.85ZM16.5971 38.85H32.5V38.65H16.5971V38.85ZM11.6665 43.0167C14.1898 43.0167 16.29 41.176 16.6957 38.7666L16.4985 38.7334C16.1087 41.0482 14.0905 42.8167 11.6665 42.8167V43.0167ZM6.6373 38.7666C7.043 41.176 9.14316 43.0167 11.6665 43.0167V42.8167C9.24254 42.8167 7.2243 41.0482 6.83452 38.7334L6.6373 38.7666ZM0.833301 38.85H6.73591V38.65H0.833301V38.85ZM-0.1 37.9167C-0.1 38.4329 0.31818 38.85 0.833301 38.85V38.65C0.4285 38.65 0.1 38.3223 0.1 37.9167H-0.1ZM-0.1 11.25V37.9167H0.1V11.25H-0.1ZM0.833301 10.3167C0.318111 10.3167 -0.1 10.7348 -0.1 11.25H0.1C0.1 10.8453 0.428568 10.5167 0.833301 10.5167V10.3167ZM11.6665 32.8167C9.14317 32.8167 7.04302 34.6573 6.6373 37.0667L6.83453 37.0999C7.22432 34.7851 9.24255 33.0167 11.6665 33.0167V32.8167ZM16.6957 37.0667C16.29 34.6573 14.1897 32.8167 11.6665 32.8167V33.0167C14.0904 33.0167 16.1087 34.7851 16.4985 37.0999L16.6957 37.0667ZM31.6665 36.9833H16.5971V37.1833H31.6665V36.9833ZM31.7665 37.0833V17.0833H31.5665V37.0833H31.7665ZM31.7665 17.0833C31.7665 17.0779 31.7666 17.0726 31.7667 17.0673L31.5667 17.063C31.5666 17.0697 31.5665 17.0765 31.5665 17.0833H31.7665ZM31.5667 12.0833V17.0651H31.7667V12.0833H31.5667ZM1.6667 12.1833H31.6667V11.9833H1.6667V12.1833ZM1.7667 37.0833V12.0833H1.5667V37.0833H1.7667ZM6.73592 36.9833H1.6667V37.1833H6.73592V36.9833ZM35.0694 36.9832H33.3333V37.1832H35.0694V36.9832ZM40 32.8167C37.4767 32.8167 35.3766 34.6573 34.9708 37.0666L35.168 37.0998C35.5579 34.7851 37.5761 33.0167 40 33.0167V32.8167ZM45.0292 37.0668C44.6235 34.6574 42.5234 32.8167 40 32.8167V33.0167C42.424 33.0167 44.4422 34.7852 44.832 37.1L45.0292 37.0668ZM48.3331 36.9834H44.9306V37.1834H48.3331V36.9834ZM48.2331 28.995V37.0834H48.4331V28.995H48.2331ZM41.1273 17.9708L48.249 29.0491L48.4172 28.9409L41.2955 17.8626L41.1273 17.9708ZM33.3333 18.0167H41.2114V17.8167H33.3333V18.0167ZM33.4333 37.0832V17.9167H33.2333V37.0832H33.4333ZM11.6665 41.15C9.88336 41.15 8.4332 39.6997 8.4332 37.9167H8.2332C8.2332 39.8102 9.7729 41.35 11.6665 41.35V41.15ZM14.8998 37.9167C14.8998 39.6997 13.4496 41.15 11.6665 41.15V41.35C13.56 41.35 15.0998 39.8102 15.0998 37.9167H14.8998ZM11.6665 34.6834C13.4496 34.6834 14.8998 36.1336 14.8998 37.9167H15.0998C15.0998 36.0232 13.56 34.4834 11.6665 34.4834V34.6834ZM8.4332 37.9167C8.4332 36.1335 9.88345 34.6834 11.6665 34.6834V34.4834C9.773 34.4834 8.2332 36.0231 8.2332 37.9167H8.4332ZM40 41.15C38.2169 41.15 36.7667 39.6997 36.7667 37.9167H36.5667C36.5667 39.8102 38.1064 41.35 40 41.35V41.15ZM43.2333 37.9167C43.2333 39.6997 41.7831 41.15 40 41.15V41.35C41.8936 41.35 43.4333 39.8102 43.4333 37.9167H43.2333ZM40 34.6834C41.7831 34.6834 43.2333 36.1336 43.2333 37.9167H43.4333C43.4333 36.0232 41.8936 34.4834 40 34.4834V34.6834ZM36.7667 37.9167C36.7667 36.1335 38.2169 34.6834 40 34.6834V34.4834C38.1065 34.4834 36.5667 36.0231 36.5667 37.9167H36.7667Z" fill="#F8F8F8" mask="url(#path-1-inside-1)"/>
<path d="M21.1564 20.3379C20.8022 20.2519 20.4447 20.4662 20.3536 20.8191L19.9962 22.2477L16.8989 17.2944C16.6789 16.9814 16.2468 16.9061 15.9339 17.1261C15.8685 17.1721 15.8116 17.229 15.7656 17.2944L14.4322 19.4277C14.2377 19.7404 14.3336 20.1515 14.6461 20.346C14.6464 20.3462 14.6466 20.3463 14.6469 20.3464C14.9591 20.5416 15.3704 20.4467 15.5656 20.1344L16.3336 18.9057L18.8809 22.9811H17.6669C17.2987 22.9811 17.0002 23.2796 17.0002 23.6477C17.0002 24.0159 17.2987 24.3144 17.6669 24.3144H20.3336C20.6393 24.3144 20.9059 24.1063 20.9802 23.8097L21.6469 21.1431C21.7338 20.7852 21.5142 20.4248 21.1564 20.3379Z" fill="black"/>
<path d="M14.9808 24.8192L14.3141 22.1525C14.2398 21.8557 13.9728 21.6475 13.6668 21.6478H11.0001C10.6319 21.6478 10.3334 21.9463 10.3334 22.3145C10.3334 22.6827 10.6319 22.9812 11.0001 22.9812H12.2141L9.10144 27.9612C8.90627 28.2734 9.00119 28.6847 9.31344 28.8798C9.41936 28.9461 9.54186 28.9812 9.66678 28.9812H12.3334C12.7016 28.9812 13.0001 28.6827 13.0001 28.3145C13.0001 27.9463 12.7016 27.6478 12.3334 27.6478H10.8668L13.3261 23.7145L13.6841 25.1452C13.7595 25.442 14.0273 25.6493 14.3335 25.6478C14.3883 25.6481 14.443 25.6413 14.4961 25.6278C14.8533 25.5383 15.0703 25.1763 14.9808 24.8192Z" fill="black"/>
<path d="M23.5547 27.9445L22.2214 25.9445C22.0171 25.6381 21.6032 25.5554 21.2969 25.7597C21.2968 25.7597 21.2968 25.7598 21.2967 25.7598C20.9904 25.964 20.9077 26.378 21.112 26.6843C21.112 26.6844 21.112 26.6844 21.112 26.6845L21.754 27.6478H16.6094L17.4714 26.7858C17.7272 26.521 17.7199 26.099 17.455 25.8431C17.1967 25.5935 16.787 25.5935 16.5287 25.8431L14.5287 27.8431C14.2684 28.1035 14.2684 28.5255 14.5287 28.7858L16.5287 30.7858C16.7935 31.0416 17.2155 31.0343 17.4714 30.7695C17.7209 30.5111 17.7209 30.1015 17.4714 29.8431L16.6094 28.9811H23C23.3682 28.9812 23.6668 28.6827 23.6668 28.3145C23.6669 28.1828 23.6279 28.054 23.5547 27.9445Z" fill="black"/>
</svg>
