<svg width="37" height="55" viewBox="0 0 37 55" fill="none" xmlns="http://www.w3.org/2000/svg">
<path d="M9.04688 -0.000488281C7.70066 -0.000488281 6.36885 0.446602 5.19559 1.29233C4.83465 1.55251 4.75301 2.056 5.01318 2.41704C5.27347 2.77809 5.77706 2.85962 6.13789 2.59944C7.04786 1.94342 8.02658 1.61084 9.04688 1.61084C12.6304 1.61084 15.5459 5.76699 15.5459 10.8758C15.5459 15.9845 12.6304 20.1407 9.04688 20.1407C5.46339 20.1407 2.54785 15.9845 2.54785 10.8758C2.54785 8.69897 3.09355 6.58114 4.08441 4.91245C4.3115 4.52981 4.1855 4.03557 3.80297 3.80837C3.42044 3.58117 2.92619 3.70718 2.69889 4.08981C1.56236 6.00375 0.936523 8.41376 0.936523 10.8758C0.936523 13.7343 1.75089 16.4312 3.22955 18.4697C3.96131 19.4785 4.81392 20.2708 5.74559 20.8243L4.80812 50.6253C4.7717 51.7828 5.19548 52.8783 6.00136 53.7098C6.80724 54.5414 7.88887 54.9995 9.04688 54.9995C10.2049 54.9995 11.2865 54.5415 12.0924 53.7099C12.8983 52.8784 13.3221 51.7829 13.2856 50.6254L13.1546 46.4628C13.1406 46.018 12.7724 45.6685 12.324 45.6829C11.8793 45.6969 11.53 46.0688 11.5441 46.5135L11.6752 50.6761C11.6977 51.3938 11.435 52.073 10.9352 52.5886C10.4355 53.1042 9.76499 53.3882 9.04688 53.3882C8.32876 53.3882 7.65823 53.1042 7.15851 52.5885C6.65889 52.0729 6.39603 51.3936 6.41858 50.676L7.33597 21.513C7.89134 21.6705 8.46379 21.7519 9.04688 21.7519C9.62996 21.7519 10.2024 21.6705 10.7578 21.513L11.436 43.0762C11.4498 43.5124 11.8075 43.8565 12.2408 43.8565C12.2493 43.8565 12.2579 43.8564 12.2665 43.8561C12.7114 43.8421 13.0606 43.4702 13.0465 43.0255L12.3482 20.8243C13.2798 20.2708 14.1324 19.4785 14.8642 18.4697C16.3429 16.4312 17.1572 13.7343 17.1572 10.8758C17.1572 8.01727 16.3429 5.32033 14.8642 3.28179C13.3289 1.16515 11.263 -0.000488281 9.04688 -0.000488281V-0.000488281Z" fill="black"/>
<path d="M35.2578 11.1066C35.7029 11.1066 36.0635 10.7459 36.0635 10.3009V2.4165C36.0635 1.08372 34.9792 -0.000488281 33.6465 -0.000488281C32.3138 -0.000488281 31.2295 1.08372 31.2295 2.4165V8.60938C31.2295 8.7574 31.1091 8.87793 30.9609 8.87793C30.8128 8.87793 30.6924 8.7574 30.6924 8.60938V2.4165C30.6924 1.08372 29.6081 -0.000488281 28.2754 -0.000488281C26.9427 -0.000488281 25.8584 1.08372 25.8584 2.4165V8.60938C25.8584 8.7574 25.738 8.87793 25.5898 8.87793C25.4417 8.87793 25.3213 8.7574 25.3213 8.60938V2.4165C25.3213 1.08372 24.237 -0.000488281 22.9043 -0.000488281C21.5716 -0.000488281 20.4873 1.08372 20.4873 2.4165V15.5117C20.4873 18.3066 22.3836 20.6655 24.9568 21.3732L24.0366 50.6253C24.0002 51.7828 24.424 52.8783 25.2299 53.7098C26.0358 54.5414 27.1174 54.9995 28.2754 54.9995C29.4334 54.9995 30.515 54.5415 31.3209 53.7099C32.1268 52.8784 32.5506 51.7829 32.5142 50.6254L31.594 21.3733C34.1672 20.6657 36.0635 18.3067 36.0635 15.5118V14.0636C36.0635 13.6187 35.7029 13.2579 35.2578 13.2579C34.8128 13.2579 34.4521 13.6187 34.4521 14.0636V15.5118C34.4521 17.9756 32.4477 19.9801 29.9838 19.9801H26.5668C24.103 19.9801 22.0985 17.9756 22.0985 15.5118V2.4165C22.0985 1.97221 22.4599 1.61084 22.9042 1.61084C23.3485 1.61084 23.7099 1.97221 23.7099 2.4165V8.60938C23.7099 9.64589 24.5532 10.4893 25.5897 10.4893C26.6262 10.4893 27.4696 9.64589 27.4696 8.60938V2.4165C27.4696 1.97221 27.831 1.61084 28.2753 1.61084C28.7196 1.61084 29.0809 1.97221 29.0809 2.4165V8.60938C29.0809 9.64589 29.9243 10.4893 30.9608 10.4893C31.9973 10.4893 32.8407 9.64589 32.8407 8.60938V2.4165C32.8407 1.97221 33.2021 1.61084 33.6464 1.61084C34.0907 1.61084 34.452 1.97221 34.452 2.4165V10.3009C34.4521 10.746 34.8128 11.1066 35.2578 11.1066ZM30.9037 50.676C30.9262 51.3937 30.6635 52.0729 30.1638 52.5885C29.664 53.1042 28.9935 53.3882 28.2754 53.3882C27.5573 53.3882 26.8867 53.1042 26.387 52.5885C25.8874 52.0729 25.6245 51.3936 25.6471 50.676L26.562 21.5912C26.5636 21.5912 26.5652 21.5913 26.567 21.5913H29.9839C29.9855 21.5913 29.9873 21.5912 29.9889 21.5912L30.9037 50.676Z" fill="black"/>
</svg>
