<svg width="41" height="57" viewBox="0 0 41 57" fill="none" xmlns="http://www.w3.org/2000/svg">
<path d="M38.9806 49.8876C41.2814 35.6963 41.2814 21.303 38.9806 7.11137C38.8173 6.0001 38.1373 5.11326 37.2719 4.53524C37.7462 4.0238 38.0368 3.33991 38.0368 2.58912V1.7251C38.0368 0.773576 37.2627 -0.000488281 36.311 -0.000488281H32.414C31.9528 -0.000488281 31.5789 0.37324 31.5789 0.834473C31.5789 1.29571 31.9528 1.66943 32.414 1.66943H36.311C36.3418 1.66943 36.3667 1.69448 36.3667 1.7251V2.58912C36.3667 3.2484 35.8303 3.78467 35.1709 3.78467H5.82951C5.17011 3.78467 4.63373 3.2484 4.63373 2.58912V1.7251C4.63373 1.69448 4.65867 1.66943 4.68939 1.66943H28.5426C29.0038 1.66943 29.3776 1.29571 29.3776 0.834473C29.3776 0.37324 29.0038 -0.000488281 28.5427 -0.000488281H4.68951C3.73787 -0.000488281 2.9637 0.773576 2.9637 1.7251V2.58912C2.9637 3.33446 3.25003 4.01412 3.71817 4.52433C2.89545 5.11715 2.26244 6.01902 2.03043 7.05593C2.02676 7.07208 2.02364 7.08822 2.02108 7.1047C1.75022 8.77462 1.50797 10.47 1.30101 12.1439C1.24446 12.6014 1.56953 13.0183 2.02732 13.0749C2.48599 13.1319 2.90202 12.8064 2.95857 12.3487C3.16186 10.7046 3.39966 9.03913 3.6654 7.39849C3.88939 6.44608 4.83011 5.45459 5.9012 5.45459C5.91623 5.45459 5.93137 5.45481 5.94629 5.45515C5.95353 5.45537 5.96076 5.45548 5.968 5.45548H35.0099C36.0087 5.51348 37.1736 6.28721 37.3287 7.35786C37.3294 7.36253 37.33 7.36721 37.3308 7.37188C39.6046 21.3914 39.6046 35.6081 37.3308 49.6273C37.33 49.6319 37.3294 49.6366 37.3287 49.6413C37.1736 50.7119 36.0088 51.4855 35.0099 51.5437H5.96811C5.96087 51.5437 5.95364 51.5438 5.9464 51.544C4.85962 51.5712 3.89262 50.5663 3.66529 49.6008C1.85665 38.4341 1.48804 27.0879 2.57004 15.8771C2.61435 15.4181 2.27814 15.0101 1.81902 14.9658C1.35957 14.9202 0.951885 15.2576 0.907577 15.7166C-0.188894 27.079 0.185614 38.578 2.02097 49.8944C2.02364 49.9107 2.02676 49.9271 2.03032 49.9432C2.26244 50.9802 2.89545 51.882 3.71828 52.4746C3.25003 52.9848 2.96358 53.6645 2.96358 54.41V55.274C2.96358 56.2256 3.73776 56.9996 4.68939 56.9996H20.7428C21.204 56.9996 21.5779 56.6259 21.5779 56.1647C21.5779 55.7034 21.204 55.3297 20.7428 55.3297H4.68951C4.65878 55.3297 4.63384 55.3047 4.63384 55.274V54.41C4.63384 53.7507 5.17022 53.2145 5.82962 53.2145H35.1709C35.8303 53.2145 36.3667 53.7507 36.3667 54.41V55.274C36.3667 55.3047 36.3418 55.3297 36.311 55.3297H24.6371C24.1758 55.3297 23.802 55.7034 23.802 56.1647C23.802 56.6259 24.1758 56.9996 24.6371 56.9996H36.3109C37.2626 56.9996 38.0367 56.2256 38.0367 55.274V54.41C38.0367 53.6592 37.7461 52.9753 37.2718 52.4639C38.1372 51.8858 38.8173 50.9989 38.9806 49.8876Z" fill="black"/>
</svg>
