<svg width="33" height="27" viewBox="0 0 33 27" fill="none" xmlns="http://www.w3.org/2000/svg">
<path d="M32.2373 3.47257C32.2373 2.02119 31.0567 0.840515 29.6055 0.840515H18.5113L16.8993 0.840623H12.0517C11.6066 0.840623 11.246 1.20134 11.246 1.64639C11.246 2.09144 11.6066 2.45217 12.0517 2.45217H29.6055C30.1681 2.45217 30.626 2.91 30.626 3.47278C30.626 4.03557 30.1681 4.4934 29.6055 4.4934H3.39453C2.83186 4.4934 2.37402 4.03557 2.37402 3.47278C2.37402 2.91 2.83186 2.45217 3.39453 2.45217H8.23958C8.68463 2.45217 9.04524 2.09144 9.04524 1.64639C9.04524 1.20134 8.68463 0.840623 8.23958 0.840623H3.39453C1.94326 0.840623 0.762695 2.0213 0.762695 3.47267C0.762695 4.86422 1.8483 6.00633 3.21696 6.09807L5.24638 22.8479C5.53319 25.2149 7.54725 26.9997 9.93126 26.9997H23.0688C25.4529 26.9997 27.4669 25.2149 27.7537 22.8478L27.8261 22.2499C27.8796 21.8081 27.5649 21.4068 27.1232 21.3533C26.6821 21.2998 26.2799 21.6145 26.2265 22.0562L26.1541 22.654C25.9652 24.2128 24.6388 25.3883 23.0687 25.3883H9.93126C8.36129 25.3883 7.03484 24.2128 6.84589 22.654L4.84086 6.10473H28.1591L26.642 18.6267C26.5885 19.0685 26.9032 19.4699 27.3449 19.5234C27.7856 19.5776 28.1881 19.2624 28.2416 18.8206L29.7831 6.09817C31.1517 6.00622 32.2373 4.86411 32.2373 3.47257Z" fill="black"/>
</svg>
