<svg width="30" height="54" viewBox="0 0 30 54" fill="none" xmlns="http://www.w3.org/2000/svg">
<path d="M26.7087 20.6729C26.4127 20.3517 25.9122 20.3311 25.591 20.6272C25.2696 20.9232 25.2492 21.4237 25.5452 21.745C27.1445 23.4805 28.0254 25.7362 28.0254 28.0964V47.5923C28.0254 50.2529 25.8609 52.4175 23.2002 52.4175H6.7998C4.13914 52.4175 1.97461 50.2529 1.97461 47.5923V28.0963C1.97461 25.7361 2.85549 23.4804 4.45481 21.7448C6.32414 19.7163 7.35352 17.0799 7.35352 14.3213V10.23H22.6465V14.3213C22.6465 15.8595 22.9625 17.3527 23.5856 18.7592C23.7626 19.1586 24.2297 19.339 24.6293 19.162C25.0287 18.985 25.2091 18.5178 25.0321 18.1184C24.4988 16.9149 24.2285 15.6375 24.2285 14.3213V10.1579C25.2575 9.89839 26.0215 8.9653 26.0215 7.85693C26.0215 6.54838 24.9569 5.48389 23.6484 5.48389H23.1738V0.790527C23.1738 0.353676 22.8198 -0.000488281 22.3828 -0.000488281H15.6896C15.2526 -0.000488281 14.8985 0.353676 14.8985 0.790527C14.8985 1.22738 15.2526 1.58154 15.6896 1.58154H21.5918V5.48389H8.4082V1.58154H11.8927C12.3296 1.58154 12.6837 1.22738 12.6837 0.790527C12.6837 0.353676 12.3296 -0.000488281 11.8927 -0.000488281H7.61719C7.18023 -0.000488281 6.82617 0.353676 6.82617 0.790527V5.48389H6.35156C5.04312 5.48389 3.97852 6.54838 3.97852 7.85693C3.97852 8.96541 4.74253 9.89849 5.77148 10.1579V14.3213C5.77148 16.6815 4.89061 18.9372 3.29128 20.6728C1.42195 22.7013 0.392578 25.3376 0.392578 28.0963V47.5923C0.392578 51.1253 3.26681 53.9995 6.7998 53.9995H23.2002C26.7332 53.9995 29.6074 51.1253 29.6074 47.5923V28.0963C29.6074 25.3377 28.5779 22.7015 26.7087 20.6729ZM6.35156 7.06592H23.6484C24.0847 7.06592 24.4395 7.42071 24.4395 7.85693C24.4395 8.29315 24.0847 8.64795 23.6484 8.64795H6.35156C5.91534 8.64795 5.56055 8.29315 5.56055 7.85693C5.56055 7.42071 5.91534 7.06592 6.35156 7.06592Z" fill="black"/>
</svg>
