<?xml version="1.0" encoding="utf-8"?><svg viewBox="0 0 170 70" xmlns="http://www.w3.org/2000/svg" xmlns:xlink="http://www.w3.org/1999/xlink"><style>:root>svg{display:none}:root>svg:target{display:block}</style><svg fill="none" viewBox="0 0 25 24" id="arrows" xmlns="http://www.w3.org/2000/svg"><path d="M12.251 22.17h-8.71a3.55 3.55 0 01-3.048-1.658 3.385 3.385 0 01-.03-3.467l1.297-2.252-.37-.214a.5.5 0 01.055-.893l2.94-1.255a.5.5 0 01.693.4l.38 3.175a.5.5 0 01-.746.493l-.357-.205-1.295 2.25a.404.404 0 00.005.422c.071.13.209.208.356.203h8.83a1.507 1.507 0 011.5 1.5 1.5 1.5 0 01-1.5 1.5zM17.026 10.884a1.488 1.488 0 01-.2-.745 1.503 1.503 0 012.803-.755l4.411 7.662a3.385 3.385 0 01-.029 3.466 3.55 3.55 0 01-3.05 1.657h-2.705v.5a.5.5 0 01-.812.39l-2.505-2a.5.5 0 010-.78l2.505-2a.5.5 0 01.812.39v.502h2.825a.39.39 0 00.354-.2.41.41 0 00.006-.43l-4.415-7.657zM5.306 11.635c.227.13.484.2.745.2a1.525 1.525 0 001.304-.75l4.534-7.875a.416.416 0 01.724 0l1.291 2.243-.37.216a.5.5 0 00.056.893l2.94 1.255a.5.5 0 00.693-.4l.38-3.175a.5.5 0 00-.746-.493l-.357.205-1.29-2.243a3.413 3.413 0 00-5.917 0L4.751 9.586c-.41.72-.162 1.634.555 2.049z" fill="#2A2A2A"/></svg><svg fill="none" viewBox="0 0 35 70" id="icon-desert-pack" xmlns="http://www.w3.org/2000/svg"><mask id="ba" maskUnits="userSpaceOnUse" x="0" y="0" width="35" height="70" fill="#000"><path fill="#fff" d="M0 0h35v70H0z"/><path fill-rule="evenodd" clip-rule="evenodd" d="M11.107 4.644L14.41 68.55l19.026-4.244-7.02-60.922-15.308 1.26zm16.422-1.7l7.113 61.738a.57.57 0 01-.438.62L14.016 69.81a.428.428 0 01-.136.011.621.621 0 01-.149 0l-6.56-1.764a.57.57 0 01-.885-.238L1.422 66.51A.57.57 0 011 65.94L3.616 2.95a.57.57 0 01.557-.806l15.488-1.14a.57.57 0 01.137 0L26.9 2.183a.57.57 0 01.25.041.57.57 0 01.38.721zm-12.84.241l7.592-.626-2.603-.416-11.486.869 2.39.51 4.108-.337zm-9.481.342l-.47-.102-2.581 62.094 4.106 1.101.348-21.106a.57.57 0 011.14 0l-.353 21.41 5.871 1.574-.406-7.856L9.961 4.578l-4.753-1.05zM6.84 41.958a.57.57 0 00.972-.397l.188-11.262a.57.57 0 00-1.14 0l-.187 11.256c0 .151.06.296.167.403z"/></mask><path fill-rule="evenodd" clip-rule="evenodd" d="M11.107 4.644L14.41 68.55l19.026-4.244-7.02-60.922-15.308 1.26zm16.422-1.7l7.113 61.738a.57.57 0 01-.438.62L14.016 69.81a.428.428 0 01-.136.011.621.621 0 01-.149 0l-6.56-1.764a.57.57 0 01-.885-.238L1.422 66.51A.57.57 0 011 65.94L3.616 2.95a.57.57 0 01.557-.806l15.488-1.14a.57.57 0 01.137 0L26.9 2.183a.57.57 0 01.25.041.57.57 0 01.38.721zm-12.84.241l7.592-.626-2.603-.416-11.486.869 2.39.51 4.108-.337zm-9.481.342l-.47-.102-2.581 62.094 4.106 1.101.348-21.106a.57.57 0 011.14 0l-.353 21.41 5.871 1.574-.406-7.856L9.961 4.578l-4.753-1.05zM6.84 41.958a.57.57 0 00.972-.397l.188-11.262a.57.57 0 00-1.14 0l-.187 11.256c0 .151.06.296.167.403z" fill="#1D1D1B"/><path d="M11.107 4.644l-.008-.1-.097.008.005.097.1-.005zM14.41 68.55l-.1.005.007.118.115-.026-.022-.097zm19.026-4.244l.022.098.087-.02-.01-.09-.1.012zm-7.02-60.922l.099-.011-.011-.096-.097.008.009.1zm8.227 61.298l-.099.011.1-.011zM27.53 2.944l-.095-.03-.007.02.003.021.1-.011zm7.013 62.132l-.082-.057.082.057zm-.338.227l.022.097-.022-.097zm-20.188 4.506l-.021-.098h-.003l.024.098zm-.136.011l.007-.1h-.019l.012.1zm0 0l-.012-.1.011.1zm-.149 0l-.025.097.006.001.008.001.011-.099zm-6.56-1.764l.026-.096-.048-.013-.04.031.062.078zm-.355.124v-.1.1zm-.403-.167l-.07.07.07-.07zm-.127-.195l.093-.036-.018-.047-.049-.013-.026.096zM1.422 66.51l.026-.096-.026.096zm-.31-.21l.08-.06-.08.06zM1 65.94l-.1-.003.1.004zM3.616 2.95l.1.004.001-.024-.01-.021-.09.041zm-.05-.274l-.1-.006.1.006zm.193-.391l-.066-.076.066.076zm.414-.141l-.007.1h.014l-.007-.1zm15.488-1.14l.008.1h.004l-.012-.1zm.137 0l.016-.098h-.004l-.012.099zM26.9 2.183l-.017.098.011.002h.012l-.006-.1zm.25.041l-.038.093.01.003.028-.096zm.255.16l-.073.068.073-.068zm.151.41l.1.003-.1-.004zm-12.866.392l.008.1-.008-.1zm7.591-.626l.009.1.007-.199-.016.099zm-2.603-.416l.016-.099-.012-.002-.011.001.007.1zm-11.486.869l-.007-.1-.014.198.021-.098zm2.39.51l-.022.099.015.003.014-.001-.008-.1zm-5.374.005l.021-.097-.021.097zm-.47-.102l.02-.098-.116-.026-.005.12.1.004zM2.156 65.519l-.1-.004-.004.08.078.021.026-.097zm4.106 1.101l-.026.097.124.033.002-.128-.1-.002zm.348-21.106l.1.002v-.002h-.1zm.167-.403l.07.071-.07-.07zm.806 0l-.071.071.07-.07zm.166.403l.1.002v-.002h-.1zm-.352 21.41l-.1-.001-.001.078.075.02.026-.097zm5.871 1.574l-.026.097.133.035-.007-.137-.1.005zm-.406-7.856l.1-.006-.1.006zM9.961 4.578l.1-.005-.004-.076-.074-.017-.022.098zM7.243 42.125v-.1.1zm.401-.165l-.07-.071.07.071zm.17-.4h-.1.1zM8 30.3l.1.001V30.3h-.1zm-.167-.403l-.07.07.07-.07zm-.805 0l.07.07-.07-.07zm-.167.402l.1.002V30.3h-.1zm-.188 11.256l-.1-.001v.001h.1zM11.007 4.65l3.303 63.906.2-.01-3.303-63.906-.2.01zm3.424 63.998l19.026-4.243-.044-.195-19.025 4.243.043.195zm19.103-4.352l-7.02-60.922-.199.023 7.02 60.921.2-.022zm-7.128-61.01L11.1 4.545l.017.199 15.307-1.26-.017-.2zm8.336 61.386L27.629 2.933l-.2.022 7.114 61.739.199-.023zm-.118.463a.67.67 0 00.118-.463l-.199.023a.47.47 0 01-.083.325l.163.115zm-.398.266a.67.67 0 00.398-.266l-.164-.115a.47.47 0 01-.279.186l.045.195zm-20.188 4.506L34.226 65.4l-.044-.195-20.188 4.506.044.195zm-.166.014c.056.004.113 0 .168-.014l-.048-.194a.327.327 0 01-.105.008l-.015.2zm.019 0l-.023-.2.023.2zm-.171 0a.716.716 0 00.171 0l-.023-.2a.527.527 0 01-.125 0l-.024.2zm-6.575-1.767l6.56 1.764.052-.194-6.56-1.763-.052.193zm-.329.126a.67.67 0 00.418-.144l-.125-.157a.47.47 0 01-.293.102v.2zm-.473-.196a.67.67 0 00.473.197v-.2a.47.47 0 01-.332-.138l-.141.141zm-.15-.228a.67.67 0 00.15.228l.141-.141a.47.47 0 01-.105-.16l-.186.073zm-4.797-1.248l4.864 1.308.052-.193-4.864-1.308-.052.193zm-.365-.248a.67.67 0 00.365.248l.052-.193a.47.47 0 01-.256-.174l-.16.119zm-.13-.421a.67.67 0 00.13.42l.161-.118a.47.47 0 01-.092-.296l-.2-.007zM3.516 2.944L.9 65.937l.2.008L3.716 2.953l-.2-.008zm.19-.037a.47.47 0 01-.04-.226l-.2-.013a.67.67 0 00.058.321l.183-.082zm-.04-.226a.47.47 0 01.158-.323l-.132-.15a.67.67 0 00-.226.46l.2.013zm.158-.323a.47.47 0 01.342-.116l.013-.2a.67.67 0 00-.487.165l.132.15zm.355-.116l15.489-1.14-.015-.2-15.488 1.14.014.2zm15.493-1.14a.469.469 0 01.113 0l.024-.199a.67.67 0 00-.16 0l.023.199zm.109 0l7.101 1.177.033-.197L19.814.905l-.032.197zm7.406 1.028a.67.67 0 00-.294-.05l.012.2a.47.47 0 01.206.035l.076-.185zm-.067.188a.47.47 0 01.21.132l.148-.136a.67.67 0 00-.3-.188l-.058.192zm.21.132a.47.47 0 01.125.337l.2.008a.67.67 0 00-.177-.481l-.147.136zm.125.337a.47.47 0 01-.022.125l.19.062a.672.672 0 00.032-.179l-.2-.008zm-12.758.497l7.592-.627-.017-.199-7.591.627.016.199zm7.6-.825l-2.604-.416-.031.198 2.603.415.031-.197zm-2.627-.417l-11.486.87.015.199 11.486-.87-.015-.199zm-9.069 1.382l-2.389-.51-.042.195 2.39.51.041-.195zm4.08-.34l-4.109.338.016.2 4.109-.338-.016-.2zm-9.453.344l-.47-.102-.043.195.47.103.043-.196zm-.592-.009l-2.58 62.095.2.008L4.837 3.43l-.2-.009zM2.131 65.616l4.106 1.1.052-.192-4.106-1.101-.052.193zm4.232 1.006l.348-21.106-.2-.003-.348 21.105.2.004zm.348-21.108a.47.47 0 01.138-.332l-.142-.141a.67.67 0 00-.196.473h.2zm.138-.332a.47.47 0 01.332-.138v-.2a.67.67 0 00-.474.197l.142.141zm.332-.138a.47.47 0 01.332.138l.141-.141a.67.67 0 00-.473-.197v.2zm.332.138a.47.47 0 01.137.332h.2a.67.67 0 00-.196-.473l-.141.141zm.137.33l-.352 21.41.2.004.352-21.41-.2-.003zm-.278 21.509l5.871 1.574.052-.193-5.871-1.574-.052.193zm5.997 1.472l-.406-7.856-.2.01.406 7.857.2-.01zm-.406-7.856L10.061 4.572l-.2.01 2.902 56.064.2-.01zM9.983 4.48L5.229 3.43l-.043.195 4.754 1.05.043-.195zm-2.74 37.545a.47.47 0 01-.332-.138l-.141.142a.67.67 0 00.473.196v-.2zm.33-.136a.47.47 0 01-.33.136v.2a.67.67 0 00.472-.194l-.141-.142zm.14-.33a.47.47 0 01-.14.33l.142.142a.67.67 0 00.198-.47l-.2-.001zm.188-11.261l-.188 11.261.2.004.188-11.262-.2-.003zm-.137-.33a.47.47 0 01.137.331h.2a.67.67 0 00-.196-.473l-.141.141zm-.333-.138a.47.47 0 01.333.137l.14-.141a.67.67 0 00-.473-.196v.2zm-.332.137a.47.47 0 01.332-.137v-.2a.67.67 0 00-.473.196l.141.141zm-.137.332a.47.47 0 01.137-.332l-.141-.141a.67.67 0 00-.196.473h.2zm-.188 11.258L6.962 30.3l-.2-.003-.188 11.256.2.003zm.137.33a.47.47 0 01-.137-.332h-.2c0 .178.07.348.196.474l.141-.142z" fill="#000" mask="url(#ba)"/></svg><svg fill="none" viewBox="0 0 40 40" id="icon-factory" xmlns="http://www.w3.org/2000/svg"><g clip-path="url(#cclip0)"><path d="M38.338 17.425a.667.667 0 00-.661-.008l-1.835 1.02L35.333.648A.667.667 0 0034.667 0H30a.667.667 0 00-.667.648L28.712 22.4l-2.045 1.133V18a.667.667 0 00-.99-.583l-11.01 6.116V18a.667.667 0 00-.99-.583l-12 6.667a.667.667 0 00-.344.583v14.666c0 .369.299.667.667.667h36a.667.667 0 00.667-.667V18a.667.667 0 00-.329-.575zm-7.69-16.092h3.37l.04 1.334H30.61l.038-1.334zM30.571 4h3.524l.434 15.166-4.462 2.478L30.57 4zM19.333 38.667h-4v-3.334h4v3.334zm5.334 0h-4v-3.334h4v3.334zm12.666 0H26v-4a.667.667 0 00-.667-.667H14.667a.667.667 0 00-.667.667v4H2.667V25.059l10.666-5.926v5.534a.667.667 0 00.99.582l11.01-6.116v5.534a.667.667 0 00.99.582l6.288-3.492 2.922-1.624 1.8-1v19.534z" fill="#000"/></g><defs><clipPath id="cclip0"><path fill="#fff" d="M0 0h40v40H0z"/></clipPath></defs></svg><svg fill="none" viewBox="0 0 40 40" id="icon-faucet" xmlns="http://www.w3.org/2000/svg"><g clip-path="url(#dclip0)" fill="#000"><path d="M38.036 21.905l-.692-2.578a6.008 6.008 0 00-7.351-4.243L15.28 19.027v-8.024c0-.3.2-.562.488-.642l10.434-2.916a4.676 4.676 0 003.244-5.742L29.11.488a.667.667 0 00-.781-.473l-21.36 4.56A4.692 4.692 0 003.275 9.14v26.98A2 2 0 001.941 38v1.334c0 .368.299.667.667.667h13.34a.667.667 0 00.667-.667v-1.334a2.001 2.001 0 00-1.334-1.878v-7.429l12.619-3.38.173.646a1.996 1.996 0 002.442 1.417l.01-.002 5.153-1.38a2.001 2.001 0 001.414-2.451l-.173-.648.646-.172a.667.667 0 00.471-.817zM4.61 17.322h9.338v18.676H4.61V17.322zm10.672 21.344H3.275v-.667c0-.368.299-.667.667-.667h10.672c.368 0 .667.299.667.667v.667zm-1.334-27.663v4.985H4.61V9.14a3.353 3.353 0 012.639-3.262L27.992 1.45l.168.61a3.342 3.342 0 01-2.317 4.101L15.41 9.077a2.006 2.006 0 00-1.463 1.926zm21.386 13.7v.003l-5.154 1.38a.667.667 0 01-.818-.47l-.172-.645 6.443-1.726.173.644a.667.667 0 01-.472.814zm-20.052 2.61v-6.904l15.057-4.037a4.677 4.677 0 015.718 3.3l.52 1.934-21.295 5.706zM34.506 28.949l-.548-.795-.55.795c-.353.512-3.453 5.057-3.453 7.049a4.002 4.002 0 108.005 0c0-1.992-3.1-6.537-3.454-7.049zm-.548 9.717a2.668 2.668 0 01-2.669-2.668c0-1.025 1.468-3.62 2.669-5.47 1.2 1.85 2.668 4.445 2.668 5.47a2.668 2.668 0 01-2.668 2.668z"/></g><defs><clipPath id="dclip0"><path fill="#fff" d="M0 0h40v40H0z"/></clipPath></defs></svg><svg fill="none" viewBox="0 0 41 57" id="icon-fertilizer" xmlns="http://www.w3.org/2000/svg"><path d="M38.98 49.888c2.301-14.192 2.301-28.585 0-42.777-.163-1.11-.843-1.998-1.708-2.576a2.854 2.854 0 00.765-1.946v-.864C38.037.774 37.263 0 36.31 0h-3.897a.835.835 0 100 1.67h3.897c.03 0 .056.024.056.055v.864c0 .66-.537 1.196-1.196 1.196H5.83c-.66 0-1.196-.537-1.196-1.196v-.864c0-.03.025-.056.055-.056h23.854a.835.835 0 100-1.67H4.69c-.952 0-1.726.775-1.726 1.726v.864c0 .745.286 1.425.754 1.935a4.32 4.32 0 00-1.697 2.58 135.35 135.35 0 00-.72 5.04.835.835 0 001.658.205c.203-1.644.44-3.31.706-4.95.224-.953 1.165-1.944 2.236-1.944a1.986 1.986 0 01.067 0H35.01c.999.058 2.164.832 2.319 1.903l.002.014a131.73 131.73 0 010 42.255l-.002.014c-.155 1.07-1.32 1.845-2.32 1.903H5.947c-1.086.027-2.053-.978-2.28-1.943A131.83 131.83 0 012.57 15.877a.835.835 0 00-1.662-.16A133.502 133.502 0 002.03 49.943a4.32 4.32 0 001.688 2.532 2.854 2.854 0 00-.754 1.935v.864c0 .952.774 1.726 1.725 1.726h16.054a.835.835 0 100-1.67H4.69a.056.056 0 01-.056-.056v-.864c0-.66.536-1.195 1.196-1.195h29.34c.66 0 1.197.536 1.197 1.195v.864c0 .03-.025.056-.056.056H24.637a.835.835 0 100 1.67h11.674c.952 0 1.726-.774 1.726-1.726v-.864c0-.75-.29-1.435-.765-1.946.865-.578 1.545-1.465 1.709-2.576z" fill="#000"/></svg><svg fill="none" viewBox="0 0 46 40" id="icon-leaf" xmlns="http://www.w3.org/2000/svg"><g clip-path="url(#fclip0)"><path d="M40.555.261l.015-.003.015-.004a.966.966 0 011.159.469c.084.17 1.854 3.864 2.95 8.895 1.476 6.778.976 12.701-1.418 17.155-.778 1.45-2.476 3.508-4.721 5.462-2.243 1.952-5.017 3.787-7.937 4.802h-.002l-.09.033-.027.01-.024.017a.987.987 0 01-.224.126h0a45.076 45.076 0 01-8.904 2.542h0l-.004.001a1.741 1.741 0 01-.528.025l-.015-.001h-.015c-.225.01-.473.01-.76.01-.467 0-1.008-.01-1.61-.04h0-.012l-1.688-.128h-.014c-3.829-.39-7.07-1.385-9.64-2.949l-.019-.013-2.195-1.651s0 0 0 0a.159.159 0 01-.013-.012h0c-1.657-1.533-2.892-3.556-3.67-6.018v-.01l-.007-.026-.408-1.527v-.014l-.004-.014A24.6 24.6 0 01.2 22.114h0c0-2.174.219-4.341.655-6.47l.003-.013v-.013a.984.984 0 01.88-.909 31.313 31.313 0 016.72.325h0c3.116.485 5.78 1.402 7.943 2.725l.225.137.072-.253.73-2.571c1.223-3.071 3.36-5.661 5.94-7.72l1.82-1.323c1.917-1.276 4.118-2.402 6.58-3.357h0A44.607 44.607 0 0140.555.261zm.43 3.272l-.157-.406-.206.383-6.163 11.492-.242.45.484-.167 8.504-2.94.158-.055-.026-.166c-.565-3.546-1.609-6.667-2.352-8.591zm-1.972-.814l.206-.384-.426.094c-2.161.48-5.596 1.418-9.054 3.08l-.16.077.058.169 2.886 8.352.15.432.215-.403 6.125-11.417zM28.05 6.654l-.078-.228-.21.12c-2.077 1.183-4.077 2.657-5.716 4.479l-.079.087.039.112 4.726 13.68.15.432.215-.403 4.38-8.163.04-.077-.028-.083-3.439-9.956zm-8.231 7.51h0c-2.074 3.858-2.312 8.369-1.83 12.441.481 4.075 1.687 7.733 2.522 9.903l.157.407.206-.384 4.812-8.97.042-.077-.029-.083-4.914-14.221-.134-.388-.223.344c-.216.334-.42.676-.61 1.028zM9.636 26.224l-.057-.067-.088-.003-6.875-.248-.247-.009.042.243c.272 1.565.708 2.981 1.308 4.217l.053.108.12.004 9.233.334.457.017-.298-.347-3.648-4.25zm-5.408-9.682l-.45-.01.293.34 4.916 5.724.333.388.018-.511.186-5.165.006-.17-.167-.033a30.336 30.336 0 00-5.135-.563zM2.679 18.13l-.132.114-.218-.014a29.718 29.718 0 00-.19 5.604l.012.181.181.007 5.127.187.457.016-.298-.347L2.68 18.13zm8.444 6.873l-.003.078.051.06 3.364 3.91.333.387.018-.51.346-9.576.004-.122-.106-.06a17.198 17.198 0 00-3.494-1.492l-.248-.075-.01.26-.255 7.14zM18.824 37.9l.208.008v-.252l-.014-.035c-.102-.253-.21-.528-.323-.827l-.012-.033-.023-.026-3.358-3.91-.057-.067-.088-.003-9.746-.352-.456-.017.297.347.032.037.117-.1-.117.1c1.776 2.072 4.28 3.317 6.771 4.062 2.493.745 4.989.996 6.77 1.068zm22.873-11.976h0c.444-.83.812-1.698 1.1-2.594l.123-.381-.379.13-15.168 5.243-.074.026-.037.069-4.81 8.97-.205.382.424-.092a44.169 44.169 0 006.91-2.117c2.165-.828 4.835-2.574 7.134-4.434a34.49 34.49 0 003.08-2.792c.862-.894 1.537-1.731 1.902-2.41zm-12.91-.35l-.242.451.483-.167 14.23-4.923h.139l.028-.166c.366-2.131.381-4.316.195-6.407l-.022-.255-.242.083-10.315 3.564-.074.026-.037.069-4.143 7.725z" fill="#000" stroke="#F8F8F8" stroke-width=".4"/></g><defs><clipPath id="fclip0"><path fill="#fff" d="M0 0h45.725v40H0z"/></clipPath></defs></svg><svg fill="none" viewBox="0 0 70 40" id="icon-lunch-box" xmlns="http://www.w3.org/2000/svg"><path d="M64.213.654h-6.78a1.025 1.025 0 100 2.05h6.78a3.74 3.74 0 013.736 3.737v1.375a.22.22 0 01-.22.22H46.006V7.43c0-1.4-1.139-2.538-2.538-2.538H26.532a2.541 2.541 0 00-2.538 2.538v.607h-4.857a1.025 1.025 0 100 2.05h4.886a3.601 3.601 0 003.568 3.145h14.818a3.601 3.601 0 003.567-3.145h17.189l-3.476 19.034a1.025 1.025 0 002.017.368l1.72-9.417h1.48a3.048 3.048 0 003.045-3.045v-6.95A2.274 2.274 0 0070 7.816V6.44A5.794 5.794 0 0064.213.654zM43.955 9.635c0 .853-.694 1.546-1.546 1.546H27.591a1.548 1.548 0 01-1.546-1.546V7.43c0-.269.218-.487.487-.487h16.936c.268 0 .487.218.487.487v2.205zM65.9 17.027a.995.995 0 01-.994.994H63.8l1.448-7.934h.65v6.94z" fill="#000"/><path d="M60.096 32.6a1.025 1.025 0 00-1.193.825l-.364 1.993a2.287 2.287 0 01-2.25 1.876H13.71a2.286 2.286 0 01-2.25-1.876l-4.626-25.33h7.563a1.025 1.025 0 100-2.051H2.27a.22.22 0 01-.22-.22V6.44a3.74 3.74 0 013.736-3.736h46.829a1.025 1.025 0 100-2.051H5.787A5.794 5.794 0 000 6.44v1.375C0 9.011.927 9.99 2.099 10.08v6.948a3.048 3.048 0 003.044 3.045h1.43l2.87 15.714a4.337 4.337 0 004.268 3.56h42.577a4.337 4.337 0 004.268-3.56l.364-1.993a1.025 1.025 0 00-.824-1.193zM5.143 18.021a.995.995 0 01-.994-.994v-6.94h.601l1.45 7.934H5.142z" fill="#000"/></svg><svg fill="none" viewBox="0 0 33 27" id="icon-pot" xmlns="http://www.w3.org/2000/svg"><path d="M32.237 3.473A2.635 2.635 0 0029.605.84H12.052a.806.806 0 100 1.611h17.553a1.022 1.022 0 010 2.041H3.395a1.022 1.022 0 010-2.04H8.24a.806.806 0 100-1.612H3.395A2.635 2.635 0 00.763 3.473a2.635 2.635 0 002.454 2.625l2.03 16.75A4.723 4.723 0 009.93 27H23.07a4.723 4.723 0 004.685-4.152l.072-.598a.806.806 0 10-1.6-.194l-.072.598a3.11 3.11 0 01-3.085 2.734H9.93a3.11 3.11 0 01-3.085-2.734L4.84 6.104h23.318l-1.517 12.523a.806.806 0 001.6.194l1.541-12.723a2.635 2.635 0 002.454-2.625z" fill="#000"/></svg><svg fill="none" viewBox="0 0 50 62" id="icon-recycle-bag" xmlns="http://www.w3.org/2000/svg"><path d="M47.1 0h-4.808a.908.908 0 000 1.816H47.1c.167 0 .302.136.302.303v21.918H2.598V2.119c0-.167.135-.303.302-.303h35.12a.908.908 0 000-1.816H2.9C1.732 0 .78.95.78 2.119v24.813a.908.908 0 001.817 0v-1.079h44.804V59.88a.303.303 0 01-.302.303h-4.895a.908.908 0 000 1.816H47.1c1.168 0 2.119-.95 2.119-2.119V2.12c0-1.169-.95-2.12-2.119-2.12zM37.957 60.183H2.9a.303.303 0 01-.302-.303V31.204a.908.908 0 00-1.817 0V59.88c0 1.169.95 2.12 2.119 2.12h35.057a.908.908 0 100-1.817z" fill="#000"/><path d="M18.703 5.873a4.51 4.51 0 00-3.21 1.33 4.511 4.511 0 00-1.33 3.21 4.546 4.546 0 004.54 4.542h12.594a4.51 4.51 0 003.21-1.33 4.51 4.51 0 001.33-3.211 4.546 4.546 0 00-4.54-4.541H18.703zm15.319 4.54c0 .728-.284 1.412-.799 1.927a2.707 2.707 0 01-1.926.798H18.703a2.728 2.728 0 01-2.724-2.724c0-.728.283-1.412.798-1.927a2.706 2.706 0 011.926-.798h12.594a2.728 2.728 0 012.725 2.725zM9 34.093h.941v2.404h2.55v-2.404h.942v5.791h-.942v-2.44h-2.55v2.44H9v-5.791zM14.657 36.988c0-1.633 1.155-2.989 2.798-2.989s2.782 1.346 2.782 2.989c0 1.624-1.156 2.988-2.799 2.988s-2.781-1.346-2.781-2.988zm4.595 0c0-1.123-.753-2.06-1.814-2.06s-1.797.918-1.797 2.06c0 1.123.753 2.06 1.814 2.06 1.061-.01 1.797-.928 1.797-2.06zM20.767 34.093h1.01l1.275 4.287 1.31-4.306h.796l1.309 4.306 1.275-4.287h.984L26.87 39.92h-.804l-1.31-4.158-1.309 4.158h-.804l-1.875-5.828zM10.694 46.054H9v-.947h4.33v.947h-1.694v4.844h-.942v-4.844zM13.895 48.011c0-1.633 1.155-2.988 2.798-2.988s2.781 1.345 2.781 2.988c0 1.624-1.155 2.988-2.798 2.988-1.634 0-2.781-1.345-2.781-2.988zm4.595 0c0-1.123-.753-2.06-1.814-2.06s-1.797.919-1.797 2.06c0 1.123.753 2.06 1.814 2.06 1.061-.009 1.797-.928 1.797-2.06zM23.206 45.116h3.953v.91h-3.02v1.503h2.678v.91H24.14v1.55h3.055v.909h-3.988v-5.782zM30.377 45.07h.873l2.345 5.828h-.993l-.54-1.402h-2.524l-.547 1.401h-.959l2.345-5.828zm1.344 3.535l-.925-2.31-.915 2.31h1.84zM33.475 46.053v-.946h4.33v.946h-1.694v4.845h-.942v-4.845h-1.694z" fill="#000"/></svg><svg fill="none" viewBox="0 0 40 40" id="icon-recycle-bin" xmlns="http://www.w3.org/2000/svg"><g clip-path="url(#jclip0)" fill="#000"><path d="M34.667 4.015V2a1.993 1.993 0 00-3.48-1.333H11.333a3.34 3.34 0 00-3.266 2.666h-.734A3.337 3.337 0 004 6.667V8c0 .368.298.667.667.667H6.72L9.333 39.39c.03.346.32.611.667.61h20a5.333 5.333 0 001.502-10.448l1.777-20.886h2.054A.667.667 0 0036 8V6.667a3.32 3.32 0 00-1.333-2.652zM32 2a.667.667 0 011.333 0v1.333H32V2zM11.333 2h19.334v1.333H9.447A2.004 2.004 0 0111.333 2zM34 34.667a4 4 0 11-4-4c.227 0 .453.022.676.062A4 4 0 0134 34.667zm-3.818-5.33h-.087c-.03 0-.063-.004-.095-.004-.057 0-.111.007-.168.009-.11 0-.221.007-.33.017-.047.004-.092.01-.138.016a5.544 5.544 0 00-.435.066h-.008a5.322 5.322 0 00-4.223 5.791c.007.063.02.123.028.184.017.123.035.246.06.367.016.072.037.141.055.212.028.106.055.214.089.318.024.074.053.144.08.217.037.097.073.195.116.29.032.072.067.142.102.212a4.421 4.421 0 00.266.467 4.865 4.865 0 00.31.439 4.76 4.76 0 00.35.405c.066.072.14.141.213.209.037.035.07.073.109.107H10.609L8.06 8.667h23.882l-1.759 20.67zm4.485-22.004H5.333v-.666a2 2 0 012-2h25.334a2 2 0 012 2v.666z"/><path d="M24.823 16.69a.667.667 0 00-.803.481l-.357 1.429-3.098-4.953a.693.693 0 00-1.133 0L18.1 15.78a.667.667 0 001.133.707l.768-1.23 2.547 4.076h-1.214a.667.667 0 000 1.334H24a.667.667 0 00.647-.505l.666-2.667a.667.667 0 00-.49-.805zM18.647 21.171l-.666-2.666a.667.667 0 00-.648-.505h-2.666a.667.667 0 000 1.333h1.214l-3.113 4.98a.667.667 0 00.565 1.02H16A.667.667 0 0016 24h-1.467l2.46-3.933.358 1.43a.667.667 0 00.812.483.667.667 0 00.484-.809zM27.221 24.297l-1.333-2a.667.667 0 10-1.11.74l.643.963h-5.145l.862-.862a.667.667 0 00-.943-.943l-2 2a.667.667 0 000 .943l2 2a.667.667 0 00.943-.943l-.862-.862h6.39a.667.667 0 00.555-1.036z"/></g><defs><clipPath id="jclip0"><path fill="#fff" d="M0 0h40v40H0z"/></clipPath></defs></svg><svg fill="none" viewBox="0 0 30 54" id="icon-reusable-bottle" xmlns="http://www.w3.org/2000/svg"><path d="M26.709 20.673a.791.791 0 10-1.164 1.072 9.348 9.348 0 012.48 6.351v19.496a4.83 4.83 0 01-4.825 4.825H6.8a4.83 4.83 0 01-4.825-4.825V28.096c0-2.36.88-4.616 2.48-6.351a10.925 10.925 0 002.899-7.424V10.23h15.293v4.091c0 1.539.316 3.032.939 4.438a.791.791 0 001.446-.64 9.314 9.314 0 01-.803-3.798v-4.163a2.377 2.377 0 001.793-2.301 2.376 2.376 0 00-2.374-2.373h-.474V.79A.79.79 0 0022.383 0H15.69a.791.791 0 100 1.582h5.902v3.902H8.408V1.582h3.485a.791.791 0 100-1.582H7.617a.791.791 0 00-.79.79v4.694h-.475a2.376 2.376 0 00-2.373 2.373c0 1.108.764 2.041 1.792 2.3v4.164c0 2.36-.88 4.616-2.48 6.352a10.925 10.925 0 00-2.898 7.423v19.496A6.414 6.414 0 006.8 54h16.4a6.414 6.414 0 006.407-6.407V28.096c0-2.758-1.03-5.395-2.898-7.423zM6.352 7.066h17.296a.792.792 0 010 1.582H6.352a.792.792 0 010-1.582z" fill="#000"/></svg><svg fill="none" viewBox="0 0 50 50" id="icon-truck" xmlns="http://www.w3.org/2000/svg"><mask id="la" fill="#fff"><path fill-rule="evenodd" clip-rule="evenodd" d="M.833 10.417H32.5c.46 0 .833.373.833.833v5h8.333c.284 0 .548.144.701.383l7.5 11.666a.831.831 0 01.133.451v9.167c0 .46-.373.833-.834.833h-4.235A5.007 5.007 0 0140 42.917a5.007 5.007 0 01-4.93-4.167H16.596a5.007 5.007 0 01-4.93 4.167 5.007 5.007 0 01-4.931-4.167H.833A.833.833 0 010 37.917V11.25c0-.46.373-.833.833-.833zm5.903 26.666a5.007 5.007 0 014.93-4.166 5.007 5.007 0 014.931 4.166h15.07v-20-5h-30v25h5.069zm26.597 0h1.736A5.007 5.007 0 0140 32.917a5.007 5.007 0 014.93 4.166h3.403v-8.088l-7.122-11.078h-7.878v19.166zm-25 .834a3.337 3.337 0 003.333 3.333A3.337 3.337 0 0015 37.917a3.337 3.337 0 00-3.334-3.334 3.337 3.337 0 00-3.333 3.334zm28.334 0A3.337 3.337 0 0040 41.25a3.337 3.337 0 003.333-3.333A3.337 3.337 0 0040 34.583a3.337 3.337 0 00-3.333 3.334z"/></mask><path fill-rule="evenodd" clip-rule="evenodd" d="M.833 10.417H32.5c.46 0 .833.373.833.833v5h8.333c.284 0 .548.144.701.383l7.5 11.666a.831.831 0 01.133.451v9.167c0 .46-.373.833-.834.833h-4.235A5.007 5.007 0 0140 42.917a5.007 5.007 0 01-4.93-4.167H16.596a5.007 5.007 0 01-4.93 4.167 5.007 5.007 0 01-4.931-4.167H.833A.833.833 0 010 37.917V11.25c0-.46.373-.833.833-.833zm5.903 26.666a5.007 5.007 0 014.93-4.166 5.007 5.007 0 014.931 4.166h15.07v-20-5h-30v25h5.069zm26.597 0h1.736A5.007 5.007 0 0140 32.917a5.007 5.007 0 014.93 4.166h3.403v-8.088l-7.122-11.078h-7.878v19.166zm-25 .834a3.337 3.337 0 003.333 3.333A3.337 3.337 0 0015 37.917a3.337 3.337 0 00-3.334-3.334 3.337 3.337 0 00-3.333 3.334zm28.334 0A3.337 3.337 0 0040 41.25a3.337 3.337 0 003.333-3.333A3.337 3.337 0 0040 34.583a3.337 3.337 0 00-3.333 3.334z" fill="#000"/><path d="M33.333 16.25h-.1v.1h.1v-.1zm9.034.383l.084-.055-.084.055zm7.5 11.666l-.084.054.084-.054zm.133.451h-.1.1zm-5.07 10v-.1h-.084l-.014.083.099.017zm-9.86 0l.098-.017-.014-.083h-.085v.1zm-2.556 0v-.1h-.002l.002.1zm-15.917 0v-.1h-.085l-.014.083.1.017zm-9.861 0l.099-.017-.015-.083h-.084v.1zm0-1.667v.1h.084l.015-.083-.1-.017zm9.861 0l-.099.017.014.083h.085v-.1zm15.07 0v.1h.1v-.1h-.1zm0-20.018l.1.002v-.002h-.1zm0-4.982h.1v-.1h-.1v.1zm-30 0v-.1h-.1v.1h.1zm0 25h-.1v.1h.1v-.1zm33.402 0v.1h.085l.014-.083-.099-.017zm-1.736 0h-.1v.1h.1v-.1zm11.598 0l-.099.017.014.083h.085v-.1zm3.402 0v.1h.1v-.1h-.1zm0-8.088h.1v-.03l-.016-.024-.084.054zm-7.122-11.078l.084-.054-.029-.046h-.055v.1zm-7.878 0v-.1h-.1v.1h.1zm-.833-7.6H.833v.2H32.5v-.2zm.933.933a.933.933 0 00-.933-.933v.2c.406 0 .733.328.733.733h.2zm0 5v-5h-.2v5h.2zm-.1.1h8.333v-.2h-8.333v.2zm8.333 0c.25 0 .482.127.617.337l.168-.109a.933.933 0 00-.785-.428v.2zm.617.337l7.5 11.666.168-.108-7.5-11.667-.168.109zm7.5 11.666a.731.731 0 01.117.397h.2a.931.931 0 00-.149-.505l-.168.108zm.117.397v9.167h.2V28.75h-.2zm0 9.167a.733.733 0 01-.734.733v.2a.932.932 0 00.934-.933h-.2zm-.734.733h-4.235v.2h4.235v-.2zm-4.334.083A4.907 4.907 0 0140 42.817v.2a5.107 5.107 0 005.03-4.25l-.198-.034zM40 42.817a4.907 4.907 0 01-4.832-4.084l-.197.034A5.107 5.107 0 0040 43.017v-.2zm-4.93-4.167h-2.556v.2h2.555v-.2zm-2.57.2h.016l-.004-.2H32.5v.2zm-15.903 0H32.5v-.2H16.597v.2zm-4.93 4.167a5.107 5.107 0 005.029-4.25l-.198-.034a4.907 4.907 0 01-4.832 4.084v.2zm-5.03-4.25a5.107 5.107 0 005.03 4.25v-.2a4.907 4.907 0 01-4.832-4.084l-.198.034zm-5.804.083h5.903v-.2H.833v.2zm-.933-.933c0 .516.418.933.933.933v-.2a.733.733 0 01-.733-.733h-.2zm0-26.667v26.667h.2V11.25h-.2zm.933-.933a.934.934 0 00-.933.933h.2c0-.405.329-.733.733-.733v-.2zm10.833 22.5a5.107 5.107 0 00-5.029 4.25l.198.033a4.907 4.907 0 014.831-4.083v-.2zm5.03 4.25a5.107 5.107 0 00-5.03-4.25v.2a4.907 4.907 0 014.832 4.083l.198-.033zm14.97-.084H16.597v.2h15.07v-.2zm.1.1v-20h-.2v20h.2zm0-20v-.016l-.2-.004v.02h.2zm-.2-5v4.982h.2v-4.982h-.2zm-29.9.1h30v-.2h-30v.2zm.1 24.9v-25h-.2v25h.2zm4.97-.1h-5.07v.2h5.07v-.2zm28.333 0h-1.736v.2h1.736v-.2zM40 32.817a5.107 5.107 0 00-5.03 4.25l.198.033A4.907 4.907 0 0140 33.017v-.2zm5.03 4.25a5.107 5.107 0 00-5.03-4.25v.2a4.907 4.907 0 014.832 4.083l.197-.033zm3.303-.084h-3.402v.2h3.402v-.2zm-.1-7.988v8.088h.2v-8.088h-.2zm-7.106-11.024l7.122 11.078.168-.108-7.122-11.078-.168.108zm-7.794.046h7.878v-.2h-7.878v.2zm.1 19.066V17.917h-.2v19.166h.2zM11.666 41.15a3.237 3.237 0 01-3.233-3.233h-.2a3.437 3.437 0 003.433 3.433v-.2zm3.234-3.233a3.237 3.237 0 01-3.234 3.233v.2a3.437 3.437 0 003.434-3.433h-.2zm-3.234-3.234a3.237 3.237 0 013.234 3.234h.2a3.437 3.437 0 00-3.434-3.434v.2zm-3.233 3.234a3.237 3.237 0 013.233-3.234v-.2a3.437 3.437 0 00-3.433 3.434h.2zM40 41.15a3.237 3.237 0 01-3.233-3.233h-.2A3.437 3.437 0 0040 41.35v-.2zm3.233-3.233A3.237 3.237 0 0140 41.15v.2a3.437 3.437 0 003.433-3.433h-.2zM40 34.683a3.237 3.237 0 013.233 3.234h.2A3.437 3.437 0 0040 34.483v.2zm-3.233 3.234A3.237 3.237 0 0140 34.683v-.2a3.437 3.437 0 00-3.433 3.434h.2z" fill="#F8F8F8" mask="url(#la)"/><path d="M21.156 20.338a.667.667 0 00-.802.481l-.358 1.429-3.097-4.954a.693.693 0 00-1.133 0l-1.334 2.134a.667.667 0 001.134.706l.768-1.228 2.547 4.075h-1.214a.667.667 0 100 1.333h2.667a.667.667 0 00.646-.504l.667-2.667a.667.667 0 00-.49-.805zM14.98 24.82l-.666-2.668a.667.667 0 00-.647-.504H11a.667.667 0 000 1.333h1.214l-3.113 4.98a.667.667 0 00.566 1.02h2.666a.667.667 0 000-1.333h-1.466l2.46-3.933.357 1.43a.667.667 0 00.812.483.667.667 0 00.485-.809zM23.555 27.945l-1.334-2a.667.667 0 10-1.11.74h.001l.642.963h-5.145l.862-.862a.667.667 0 00-.942-.943l-2 2a.667.667 0 000 .943l2 2a.667.667 0 00.942-.943l-.862-.862H23a.667.667 0 00.555-1.037z" fill="#000"/></svg><svg fill="none" viewBox="0 0 60 34" id="icon-wooden-bowl" xmlns="http://www.w3.org/2000/svg"><path d="M1.758 13.015V2.175h44.88a.879.879 0 000-1.758H.878a.879.879 0 00-.878.88v11.718c0 3.775 1.363 7.42 3.838 10.265a.877.877 0 001.24.086.879.879 0 00.086-1.24 13.878 13.878 0 01-3.406-9.11zM59.121.417h-8.385a.879.879 0 000 1.758h7.506v10.84c0 .829-.073 1.64-.213 2.43-.124.557-.385 1.689-.433 1.757a13.822 13.822 0 01-1.364 3.003c-.42.744-1.271 1.716-1.266 1.758-2.549 3.018-6.36 4.939-10.61 4.939H15.643c-2.822 0-5.539-.842-7.855-2.434a.88.88 0 00-.996 1.449 15.55 15.55 0 008.5 2.736v2.866c0 1.137.925 2.063 2.063 2.063h17.022a.879.879 0 000-1.758H17.356a.305.305 0 01-.305-.305v-2.86h25.898v2.86a.305.305 0 01-.305.305H38.44a.879.879 0 000 1.757h4.204a2.065 2.065 0 002.063-2.062v-2.864C53.172 28.468 60 21.524 60 13.015V1.296a.879.879 0 00-.879-.879z" fill="#000"/></svg><svg fill="none" viewBox="0 0 37 55" id="icon-wooden-tableware" xmlns="http://www.w3.org/2000/svg"><path d="M9.047 0C7.7 0 6.369.447 5.196 1.292A.806.806 0 006.138 2.6c.91-.656 1.889-.988 2.909-.988 3.583 0 6.499 4.156 6.499 9.265 0 5.109-2.916 9.265-6.5 9.265-3.583 0-6.498-4.156-6.498-9.265 0-2.177.546-4.295 1.536-5.964A.806.806 0 002.7 4.09C1.562 6.004.937 8.414.937 10.876c0 2.858.814 5.555 2.293 7.594.731 1.009 1.584 1.8 2.516 2.354l-.938 29.801a4.206 4.206 0 001.193 3.085A4.207 4.207 0 009.047 55c1.158 0 2.24-.459 3.045-1.29a4.206 4.206 0 001.194-3.085l-.131-4.162a.806.806 0 10-1.61.05l.13 4.163a2.608 2.608 0 01-.74 1.913c-.5.515-1.17.8-1.888.8a2.608 2.608 0 01-1.888-.8 2.609 2.609 0 01-.74-1.913l.917-29.163a6.254 6.254 0 003.422 0l.678 21.563a.806.806 0 101.61-.05l-.698-22.202c.932-.553 1.784-1.346 2.516-2.354 1.479-2.039 2.293-4.736 2.293-7.594 0-2.859-.814-5.556-2.293-7.594C13.33 1.165 11.263 0 9.047 0zM35.258 11.107c.445 0 .805-.361.805-.806V2.416A2.42 2.42 0 0033.648 0a2.42 2.42 0 00-2.417 2.417v6.192a.269.269 0 01-.538 0V2.417A2.42 2.42 0 0028.275 0a2.42 2.42 0 00-2.417 2.417v6.192a.269.269 0 01-.537 0V2.417A2.42 2.42 0 0022.904 0a2.42 2.42 0 00-2.417 2.417v13.095a6.09 6.09 0 004.47 5.861l-.92 29.252a4.206 4.206 0 001.193 3.085A4.207 4.207 0 0028.275 55c1.158 0 2.24-.459 3.046-1.29a4.206 4.206 0 001.193-3.085l-.92-29.252a6.09 6.09 0 004.47-5.861v-1.448a.806.806 0 10-1.612 0v1.448a4.473 4.473 0 01-4.468 4.468h-3.417a4.473 4.473 0 01-4.468-4.468V2.417a.807.807 0 011.61 0v6.192c0 1.037.844 1.88 1.88 1.88 1.037 0 1.88-.843 1.88-1.88V2.417a.807.807 0 011.612 0v6.192c0 1.037.843 1.88 1.88 1.88 1.036 0 1.88-.843 1.88-1.88V2.417a.807.807 0 011.611 0V10.3c0 .445.36.806.806.806zm-4.354 39.569a2.608 2.608 0 01-.74 1.913c-.5.515-1.17.8-1.889.8a2.608 2.608 0 01-1.888-.8 2.608 2.608 0 01-.74-1.913l.915-29.085H29.989l.915 29.085z" fill="#000"/></svg><svg fill="none" viewBox="0 0 170 46" id="logo" xmlns="http://www.w3.org/2000/svg"><g clip-path="url(#oclip0)" fill="#000"><path d="M169.976 38.159H0V.17h170v37.988h-.024zM2.278 35.98h165.395V2.323H2.278V35.98z"/><path d="M10.9 11.117h2.695v6.88h7.3v-6.88h2.695v16.576h-2.695v-6.986h-7.3v6.986h-2.694V11.117zM27.092 19.404c0-4.675 3.307-8.554 8.01-8.554 4.704 0 7.961 3.852 7.961 8.554 0 4.649-3.306 8.554-8.01 8.554-4.703 0-7.96-3.852-7.96-8.554zm13.154 0c0-3.214-2.155-5.897-5.193-5.897-3.037 0-5.144 2.63-5.144 5.897 0 3.214 2.156 5.897 5.193 5.897 3.038-.026 5.144-2.656 5.144-5.897zM44.583 11.117h2.89l3.65 12.273 3.748-12.327h2.278l3.748 12.327 3.65-12.273h2.817l-5.316 16.682h-2.303l-3.747-11.9-3.748 11.9h-2.303l-5.364-16.682zM81.277 13.8h-4.85v-2.71h12.395v2.71h-4.85v13.867h-2.695V13.8zM90.438 19.404c0-4.675 3.307-8.554 8.01-8.554 4.704 0 7.961 3.852 7.961 8.554 0 4.649-3.306 8.554-8.01 8.554-4.678 0-7.96-3.852-7.96-8.554zm13.154 0c0-3.214-2.155-5.897-5.193-5.897-3.037 0-5.144 2.63-5.144 5.897 0 3.214 2.156 5.897 5.193 5.897 3.038-.026 5.144-2.656 5.144-5.897zM117.09 11.117h11.317v2.603h-8.647v4.304h7.667v2.603h-7.667v4.436h8.745v2.604H117.09v-16.55zM137.617 10.984h2.499l6.712 16.682h-2.842l-1.543-4.011h-7.226l-1.568 4.011h-2.744l6.712-16.682zm3.846 10.12l-2.645-6.614-2.621 6.615h5.266zM151.31 13.8h-4.826v-2.71h12.395v2.71h-4.85v13.867h-2.694V13.8h-.025z"/></g><defs><clipPath id="oclip0"><path fill="#fff" transform="translate(0 .171)" d="M0 0h170v45.647H0z"/></clipPath></defs></svg></svg>