<svg width="25" height="24" viewBox="0 0 25 24" fill="none" xmlns="http://www.w3.org/2000/svg">
<path d="M12.2514 22.1694H3.54136C2.3061 22.1851 1.1515 21.5575 0.492858 20.5124C-0.153358 19.4498 -0.164876 18.1185 0.462858 17.0449L1.75986 14.7934L1.39036 14.5789C1.22663 14.4839 1.13058 14.3046 1.14222 14.1156C1.15387 13.9267 1.2712 13.7605 1.44536 13.6864L4.38536 12.4314C4.53006 12.3697 4.69535 12.3797 4.83155 12.4583C4.96776 12.537 5.05901 12.6752 5.07786 12.8314L5.45786 16.0064C5.48048 16.1943 5.39504 16.3789 5.23712 16.4833C5.0792 16.5876 4.87588 16.5939 4.71186 16.4994L4.35536 16.2939L3.05986 18.5439C2.98203 18.6745 2.98416 18.8378 3.06536 18.9664C3.13631 19.0957 3.27393 19.1742 3.42136 19.1694H12.2514C13.0781 19.1735 13.7473 19.8426 13.7514 20.6694C13.7514 21.4978 13.0798 22.1694 12.2514 22.1694Z" fill="#2A2A2A"/>
<path d="M17.0264 10.8844C16.8954 10.658 16.8264 10.401 16.8264 10.1394C16.8271 9.46032 17.2828 8.86601 17.9385 8.68925C18.5942 8.5125 19.2869 8.79718 19.6289 9.38389L24.0404 17.0464C24.6679 18.1194 24.6568 19.4501 24.0114 20.5124C23.3524 21.558 22.1971 22.1856 20.9614 22.1694H18.2564V22.6694C18.2563 22.8615 18.1462 23.0365 17.9731 23.1198C17.8 23.203 17.5945 23.1798 17.4444 23.0599L14.9394 21.0599C14.8207 20.965 14.7516 20.8213 14.7516 20.6694C14.7516 20.5175 14.8207 20.3738 14.9394 20.2789L17.4444 18.2789C17.5945 18.159 17.8 18.1358 17.9731 18.219C18.1462 18.3023 18.2563 18.4773 18.2564 18.6694V19.1709H21.0814C21.2273 19.1757 21.3638 19.0985 21.4349 18.9709C21.5183 18.8404 21.5208 18.6739 21.4414 18.5409L17.0264 10.8844Z" fill="#2A2A2A"/>
<path d="M5.30587 11.6348C5.53272 11.7653 5.7897 11.8342 6.05137 11.8348C6.5875 11.8314 7.08242 11.5466 7.35487 11.0848L11.8894 3.20985C11.9635 3.07995 12.1016 2.99977 12.2511 2.99977C12.4007 2.99977 12.5388 3.07995 12.6129 3.20985L13.9044 5.45335L13.5349 5.66935C13.3711 5.76434 13.2751 5.94365 13.2867 6.13258C13.2984 6.32152 13.4157 6.48768 13.5899 6.56185L16.5304 7.81685C16.6751 7.87854 16.8404 7.86855 16.9766 7.78987C17.1128 7.7112 17.204 7.57301 17.2229 7.41685L17.6029 4.24185C17.6255 4.05392 17.54 3.86932 17.3821 3.76496C17.2242 3.6606 17.0209 3.65436 16.8569 3.74885L16.5004 3.95435L15.2099 1.71085C14.6009 0.652412 13.4728 0 12.2516 0C11.0305 0 9.90239 0.652412 9.29337 1.71085L4.75137 9.58585C4.34164 10.3052 4.5893 11.2203 5.30587 11.6348Z" fill="#2A2A2A"/>
</svg>
