<svg width="40" height="40" viewBox="0 0 40 40" fill="none" xmlns="http://www.w3.org/2000/svg">
<g clip-path="url(#clip0)">
<path d="M34.6666 4.01457C34.6666 4.00924 34.6666 4.00524 34.6666 3.99991V1.9999C34.6706 0.899401 33.7818 0.0039828 32.6812 -1.72127e-05C32.1105 -0.00210055 31.5664 0.240567 31.1866 0.666567H11.3332C9.74983 0.668567 8.38549 1.78232 8.06658 3.33324H7.33324C5.49324 3.33541 4.00207 4.82658 3.9999 6.66658V7.99992C3.9999 8.36808 4.2984 8.66658 4.66657 8.66658H6.72057L9.33324 39.39C9.36274 39.7359 9.65275 40.0012 9.99991 40H30C32.9455 39.9947 35.329 37.6027 35.3238 34.6571C35.3196 32.2973 33.765 30.2207 31.502 29.5519L33.2793 8.6665H35.3333C35.7015 8.6665 36 8.368 36 7.99983V6.6665C35.9976 5.62199 35.5036 4.63949 34.6666 4.01457ZM32 1.9999C32 1.63174 32.2985 1.33324 32.6666 1.33324C33.0348 1.33324 33.3333 1.63174 33.3333 1.9999V3.33324H32V1.9999ZM11.3332 1.9999H30.6666V3.33324H9.44724C9.73083 2.53474 10.486 2.0009 11.3332 1.9999ZM34 34.6666C34 36.8758 32.2091 38.6666 30 38.6666C27.7908 38.6666 25.9999 36.8758 25.9999 34.6666C25.9999 32.4575 27.7908 30.6666 30 30.6666C30.2266 30.6679 30.4528 30.6886 30.676 30.7286C32.5946 31.0576 33.9978 32.72 34 34.6666ZM30.182 29.3366C30.1526 29.3366 30.124 29.3366 30.0946 29.3366C30.0653 29.3366 30.032 29.3333 30 29.3333C29.9433 29.3333 29.8886 29.34 29.832 29.342C29.7213 29.342 29.6106 29.3486 29.502 29.3586C29.4553 29.3626 29.41 29.3693 29.364 29.3746C29.2173 29.392 29.072 29.4126 28.9286 29.4413H28.9213C26.2299 29.9922 24.4002 32.501 24.6979 35.232C24.7046 35.2946 24.7173 35.3546 24.7259 35.416C24.7433 35.5393 24.7606 35.662 24.7866 35.7826C24.8019 35.8546 24.8233 35.924 24.8413 35.9946C24.8686 36.1013 24.8959 36.2086 24.9299 36.3126C24.9539 36.3866 24.9826 36.4573 25.0099 36.53C25.0466 36.6273 25.0833 36.7253 25.1259 36.82C25.1579 36.892 25.1926 36.962 25.2279 37.032C25.2733 37.1233 25.3199 37.2133 25.3699 37.2986C25.4093 37.3653 25.4513 37.432 25.4939 37.4986C25.5473 37.5833 25.6019 37.666 25.6599 37.7466C25.7059 37.8133 25.7539 37.8753 25.8033 37.938C25.8639 38.0166 25.9273 38.092 25.9926 38.1666C26.0453 38.2266 26.0986 38.286 26.1533 38.3433C26.2199 38.4153 26.2939 38.484 26.3673 38.552C26.4039 38.5866 26.4379 38.6253 26.4759 38.6586H10.6092L8.05924 8.66658H31.9406L30.182 29.3366ZM34.6666 7.33325H5.33324V6.66658C5.33324 5.56199 6.22866 4.66658 7.33324 4.66658H32.6666C33.7712 4.66658 34.6666 5.56199 34.6666 6.66658V7.33325Z" fill="black"/>
<path d="M24.8229 16.6901C24.4687 16.6041 24.1112 16.8184 24.0201 17.1713L23.6627 18.5999L20.5654 13.6466C20.3454 13.3336 19.9133 13.2583 19.6004 13.4783C19.535 13.5243 19.4781 13.5812 19.4321 13.6466L18.0987 15.7799C17.9042 16.0926 18.0001 16.5037 18.3126 16.6982C18.3129 16.6984 18.3131 16.6985 18.3134 16.6986C18.6256 16.8938 19.0369 16.7989 19.2321 16.4866L20.0001 15.2579L22.5474 19.3333H21.3334C20.9652 19.3333 20.6667 19.6318 20.6667 20C20.6667 20.3681 20.9652 20.6666 21.3334 20.6666H24.0001C24.3058 20.6666 24.5724 20.4585 24.6467 20.162L25.3134 17.4953C25.4003 17.1374 25.1807 16.777 24.8229 16.6901Z" fill="black"/>
<path d="M18.6473 21.1713L17.9806 18.5046C17.9063 18.2078 17.6393 17.9996 17.3333 17.9999H14.6666C14.2984 17.9999 13.9999 18.2984 13.9999 18.6666C13.9999 19.0348 14.2984 19.3333 14.6666 19.3333H15.8806L12.7679 24.3133C12.5728 24.6255 12.6677 25.0368 12.9799 25.232C13.0859 25.2982 13.2084 25.3333 13.3333 25.3333H16C16.3681 25.3333 16.6666 25.0348 16.6666 24.6666C16.6666 24.2985 16.3681 24 16 24H14.5333L16.9926 20.0666L17.3506 21.4973C17.426 21.7941 17.6938 22.0014 18 22C18.0548 22.0002 18.1095 21.9935 18.1626 21.98C18.5198 21.8905 18.7368 21.5284 18.6473 21.1713Z" fill="black"/>
<path d="M27.2212 24.2966L25.8879 22.2966C25.6836 21.9903 25.2697 21.9075 24.9634 22.1119C24.9633 22.1119 24.9633 22.112 24.9632 22.112C24.6569 22.3162 24.5742 22.7301 24.7785 23.0365C24.7785 23.0365 24.7785 23.0365 24.7785 23.0366L25.4205 24H20.2759L21.1379 23.138C21.3937 22.8731 21.3864 22.4511 21.1215 22.1953C20.8632 21.9457 20.4535 21.9457 20.1952 22.1953L18.1952 24.1953C17.9349 24.4556 17.9349 24.8776 18.1952 25.138L20.1952 27.138C20.46 27.3938 20.882 27.3865 21.1379 27.1216C21.3874 26.8633 21.3874 26.4536 21.1379 26.1953L20.2759 25.3333H26.6666C27.0347 25.3334 27.3333 25.0349 27.3333 24.6667C27.3334 24.535 27.2944 24.4062 27.2212 24.2966Z" fill="black"/>
</g>
<defs>
<clipPath id="clip0">
<rect width="40" height="40" fill="white"/>
</clipPath>
</defs>
</svg>
