<svg width="40" height="40" viewBox="0 0 40 40" fill="none" xmlns="http://www.w3.org/2000/svg">
<g clip-path="url(#clip0)">
<path d="M38.0365 21.905C38.0364 21.9047 38.0363 21.9044 38.0362 21.9041H38.0369L37.3445 19.3268C36.483 16.1273 33.1941 14.2292 29.9927 15.0839L15.2812 19.0273V11.0032C15.2812 10.7039 15.4805 10.4413 15.7688 10.3608L26.2028 7.44525C28.68 6.74981 30.1298 4.18365 29.4471 1.70296L29.1103 0.488333C29.0158 0.148658 28.6733 -0.0587816 28.3286 0.0147562L6.9689 4.57444C4.81971 5.04251 3.284 6.94057 3.275 9.14012V36.1207C2.47834 36.4023 1.94448 37.154 1.94098 37.999V39.333C1.94098 39.7014 2.23963 40 2.60799 40H15.9482C16.3165 40 16.6152 39.7014 16.6152 39.333V37.999C16.6117 37.154 16.0778 36.4023 15.2812 36.1207V28.6922L27.8997 25.3118L28.0731 25.9581C28.356 27.0237 29.4492 27.6583 30.5149 27.3754C30.518 27.3746 30.5212 27.3738 30.5244 27.3728L35.6783 25.9928C36.7457 25.7064 37.3788 24.6089 37.0924 23.5415L36.919 22.8945L37.5646 22.7218C37.9205 22.6266 38.1318 22.2609 38.0365 21.905ZM4.60902 17.3217H13.9472V35.9979H4.60902V17.3217ZM15.2812 38.666H3.275V37.999C3.275 37.6306 3.57365 37.332 3.94201 37.332H14.6142C14.9825 37.332 15.2812 37.6306 15.2812 37.999V38.666ZM13.9472 11.0031V15.9876H4.60902V9.14012C4.61577 7.56898 5.71259 6.2132 7.24771 5.87844L27.9917 1.45016L28.1605 2.05914C28.6473 3.83105 27.6121 5.66358 25.8433 6.16125L15.4099 9.07675C14.5465 9.31955 13.9492 10.1062 13.9472 11.0031ZM35.3328 24.7035V24.7055L30.1788 26.0868C29.8232 26.1826 29.4571 25.972 29.3613 25.6162C29.3613 25.6159 29.3612 25.6155 29.3611 25.6153L29.189 24.9709L35.6323 23.2447L35.8051 23.889C35.8988 24.2442 35.6877 24.6084 35.3328 24.7035ZM15.2812 27.3121V20.4086L30.3376 16.3718C32.8274 15.7088 35.3844 17.1846 36.0559 19.6722L36.5755 21.6065L15.2812 27.3121Z" fill="black"/>
<path d="M34.5064 28.949L33.9575 28.1539L33.4085 28.949C33.055 29.4612 29.9554 34.0056 29.9554 35.9979C29.9554 38.2082 31.7472 40 33.9575 40C36.1678 40 37.9595 38.2082 37.9595 35.9979C37.9595 34.0056 34.8599 29.4612 34.5064 28.949ZM33.9575 38.666C32.484 38.666 31.2894 37.4714 31.2894 35.9979C31.2894 34.9727 32.7569 32.3774 33.9575 30.5285C35.1581 32.3781 36.6255 34.9734 36.6255 35.9979C36.6255 37.4714 35.431 38.666 33.9575 38.666Z" fill="black"/>
</g>
<defs>
<clipPath id="clip0">
<rect width="40" height="40" fill="white"/>
</clipPath>
</defs>
</svg>
