<svg width="46" height="40" viewBox="0 0 46 40" fill="none" xmlns="http://www.w3.org/2000/svg">
<g clip-path="url(#clip0)">
<path d="M40.555 0.260954L40.5702 0.258417L40.5849 0.253584C40.8027 0.181602 41.039 0.189477 41.2515 0.275799C41.4634 0.361844 41.6378 0.520234 41.7439 0.722768C41.8276 0.89294 43.5978 4.58684 44.6941 9.61786C46.1703 16.3962 45.6696 22.3194 43.2764 26.7735C42.4978 28.2224 40.7999 30.2807 38.5549 32.2348C36.3118 34.1873 33.5383 36.0218 30.6183 37.0367L30.6163 37.0375L30.5266 37.0698L30.4986 37.0798L30.4748 37.0975C30.4059 37.1489 30.3307 37.191 30.2509 37.2229L30.2508 37.223C27.3782 38.3738 24.3947 39.2258 21.3474 39.7654L21.3474 39.7653L21.3427 39.7663C21.169 39.8014 20.9911 39.8098 20.8149 39.7912L20.7998 39.7896L20.7846 39.7904C20.5596 39.8009 20.3117 39.8009 20.0252 39.8009C19.5582 39.8009 19.0171 39.7902 18.4144 39.7599L18.4144 39.7596H18.4043H18.4029L16.7152 39.6319L16.7076 39.6314H16.7012C12.8725 39.2429 9.63031 38.2472 7.0616 36.6833L7.04196 36.67L4.84735 35.0187C4.84724 35.0186 4.84713 35.0185 4.84703 35.0184C4.84254 35.015 4.83821 35.0113 4.83407 35.0074L4.83343 35.0069C3.17722 33.4736 1.94167 31.4511 1.16342 28.9893V28.9786L1.15667 28.9533L0.749453 27.426L0.748549 27.412L0.745469 27.3976C0.373225 25.6614 0.190056 23.89 0.199167 22.1143L0.199167 22.1132C0.198156 19.9402 0.417681 17.7727 0.854368 15.6441L0.857015 15.6312L0.857947 15.618C0.874364 15.3866 0.972007 15.1685 1.13364 15.0021C1.29437 14.8366 1.5081 14.7329 1.73747 14.709C3.98224 14.5759 6.23482 14.6851 8.45622 15.0345L8.45656 15.0346C11.5732 15.5194 14.2369 16.436 16.4002 17.7587L16.625 17.8961L16.6969 17.6426L17.4261 15.0718C18.6495 12.0009 20.7872 9.41085 23.3675 7.35292L25.1877 6.02865C27.1037 4.7532 29.3049 3.62661 31.7672 2.67201L31.7673 2.67199C34.6065 1.57044 37.5512 0.762546 40.555 0.260954ZM40.985 3.53291L40.828 3.12658L40.6221 3.51044L34.459 15.0017L34.2173 15.4523L34.7006 15.2852L43.2049 12.3449L43.3634 12.2901L43.337 12.1244C42.7717 8.57817 41.728 5.45683 40.985 3.53291ZM39.0129 2.71911L39.2191 2.33476L38.7933 2.42933C36.6319 2.90933 33.1966 3.8472 29.739 5.5093L29.5784 5.58649L29.6366 5.75489L32.5231 14.1067L32.6723 14.5386L32.8883 14.1359L39.0129 2.71911ZM28.0512 6.65399L27.9725 6.42622L27.7631 6.54552C25.6858 7.72907 23.6859 9.20282 22.0472 11.0247L21.9683 11.1123L22.0068 11.2238L26.733 24.9036L26.8823 25.3356L27.0983 24.9329L31.4774 16.7703L31.5188 16.6932L31.4902 16.6105L28.0512 6.65399ZM19.8196 14.1642L19.8194 14.1646C17.7457 18.0222 17.5077 22.5326 17.9894 26.6051C18.4714 30.6799 19.6765 34.338 20.5122 36.5082L20.6689 36.9151L20.8751 36.5308L25.6874 27.561L25.7287 27.4839L25.7002 27.4012L20.7856 13.1795L20.6516 12.7917L20.4287 13.1362C20.2129 13.4695 20.0099 13.8122 19.8196 14.1642ZM9.63558 26.2239L9.57855 26.1575L9.49107 26.1544L2.61571 25.9059L2.36925 25.897L2.41143 26.14C2.68316 27.7051 3.11871 29.121 3.71936 30.357L3.7719 30.4651L3.89202 30.4694L13.1255 30.8031L13.5822 30.8196L13.2845 30.4729L9.63558 26.2239ZM4.22783 16.5422L3.7785 16.5315L4.07133 16.8725L8.98679 22.5961L9.32001 22.9841L9.33838 22.473L9.52406 17.3082L9.53019 17.1377L9.36281 17.1048C7.67026 16.7716 5.95237 16.5834 4.22783 16.5422ZM2.67946 18.1286L2.54653 18.2428L2.3294 18.2289C2.08968 20.0869 2.02619 21.9633 2.13976 23.8333L2.15076 24.0144L2.33212 24.021L7.45927 24.2076L7.9162 24.2242L7.61824 23.8774L2.67946 18.1286ZM11.1228 25.0016L11.12 25.0798L11.171 25.1392L14.5347 29.05L14.8678 29.4373L14.8862 28.9268L15.2316 19.3506L15.2359 19.2291L15.1301 19.1693C14.0241 18.5444 12.8522 18.0441 11.636 17.6773L11.3877 17.6024L11.3784 17.8616L11.1228 25.0016ZM18.8241 37.9009L19.0322 37.9093V37.701V37.6966V37.6578L19.0177 37.6219C18.9161 37.3692 18.8086 37.0936 18.6954 36.795L18.683 36.7622L18.6601 36.7356L15.3018 32.8257L15.2448 32.7593L15.1573 32.7561L5.41071 32.4036L4.95462 32.3871L5.25163 32.7337L5.28392 32.7713L5.40104 32.6709L5.28393 32.7713C7.0601 34.8434 9.56399 36.0879 12.0551 36.833C14.5477 37.5785 17.0439 37.8287 18.8241 37.9009ZM41.6966 25.9251L41.6968 25.9247C42.1408 25.0949 42.509 24.2267 42.7971 23.3307L42.9196 22.9497L42.5414 23.0805L27.3725 28.3233L27.2986 28.3489L27.2616 28.4178L22.452 37.3877L22.2468 37.7704L22.671 37.6776C25.0283 37.1618 27.3394 36.4538 29.581 35.5605C31.7462 34.7327 34.4157 32.9869 36.7151 31.1272C37.8667 30.1957 38.9299 29.2321 39.7948 28.3353C40.657 27.4413 41.3317 26.6039 41.6966 25.9251ZM28.7865 25.5753L28.5447 26.026L29.0281 25.8588L43.2583 20.9364H43.397L43.4254 20.7702C43.7905 18.6386 43.8063 16.4545 43.6204 14.3627L43.5977 14.1078L43.3558 14.1914L33.0406 17.7551L32.9666 17.7806L32.9296 17.8496L28.7865 25.5753Z" fill="black" stroke="#F8F8F8" stroke-width="0.4"/>
</g>
<defs>
<clipPath id="clip0">
<rect width="45.7254" height="40" fill="white"/>
</clipPath>
</defs>
</svg>
