<svg width="35" height="70" viewBox="0 0 35 70" fill="none" xmlns="http://www.w3.org/2000/svg">
<mask id="path-1-outside-1" maskUnits="userSpaceOnUse" x="0" y="-0.000488281" width="35" height="70" fill="black">
<rect fill="white" y="-0.000488281" width="35" height="70"/>
<path fill-rule="evenodd" clip-rule="evenodd" d="M11.1073 4.64394L14.4093 68.5498L33.4348 64.3061L26.4146 3.38428L11.1073 4.64394ZM27.5293 2.94395L34.6424 64.682C34.6586 64.8214 34.6228 64.9618 34.5418 65.0764C34.4609 65.1909 34.3405 65.2716 34.2038 65.3029L14.0163 69.8087C13.9716 69.8198 13.9255 69.8237 13.8796 69.8201L13.8795 69.8201C13.8303 69.826 13.7806 69.826 13.7315 69.8201L7.17142 68.0563C7.07072 68.1361 6.94557 68.1798 6.81621 68.1795C6.66513 68.1795 6.52025 68.1195 6.41343 68.0127C6.35753 67.9568 6.31445 67.8905 6.28608 67.8183L1.42186 66.5105C1.29759 66.4771 1.18828 66.4027 1.11174 66.2992C1.0352 66.1958 0.995929 66.0695 1.00033 65.9409L3.61648 2.94901C3.57784 2.86412 3.56023 2.77025 3.56639 2.67548C3.57621 2.52441 3.64564 2.38342 3.75941 2.28354C3.87318 2.18366 4.02196 2.13306 4.17304 2.14288L19.6611 1.00363C19.7066 0.99814 19.7525 0.99814 19.7979 1.00363L26.8995 2.18162C26.9857 2.17646 27.0712 2.19099 27.1499 2.22329C27.247 2.25235 27.3355 2.30704 27.4054 2.38279C27.508 2.49389 27.5622 2.64118 27.5562 2.79225C27.5541 2.84426 27.5449 2.89526 27.5293 2.94395ZM14.6898 3.1852L22.2814 2.5587L19.6782 2.14288L8.19236 3.01199L10.5812 3.52295L14.6898 3.1852ZM5.20761 3.52715L4.73708 3.42453L2.15667 65.5194L6.26291 66.6201L6.61115 45.5141C6.61115 45.3631 6.67116 45.2182 6.77799 45.1114C6.88481 45.0045 7.0297 44.9445 7.18077 44.9445C7.33185 44.9445 7.47673 45.0045 7.58355 45.1114C7.69038 45.2182 7.7504 45.3631 7.7504 45.5141L7.39778 66.9244L13.2693 68.4983L12.8634 60.6416L9.96127 4.57778L5.20761 3.52715ZM6.84067 41.958C6.9475 42.0648 7.09238 42.1248 7.24345 42.1248C7.39355 42.1249 7.53758 42.0656 7.64424 41.96C7.7509 41.8544 7.81158 41.711 7.81308 41.5609L8.00106 30.2994C8.00106 30.1483 7.94104 30.0035 7.83422 29.8966C7.72739 29.7898 7.5825 29.7298 7.43143 29.7298C7.28036 29.7298 7.13547 29.7898 7.02864 29.8966C6.92182 30.0035 6.86181 30.1483 6.86181 30.2994L6.67383 41.5552C6.67383 41.7063 6.73385 41.8512 6.84067 41.958Z"/>
</mask>
<path fill-rule="evenodd" clip-rule="evenodd" d="M11.1073 4.64394L14.4093 68.5498L33.4348 64.3061L26.4146 3.38428L11.1073 4.64394ZM27.5293 2.94395L34.6424 64.682C34.6586 64.8214 34.6228 64.9618 34.5418 65.0764C34.4609 65.1909 34.3405 65.2716 34.2038 65.3029L14.0163 69.8087C13.9716 69.8198 13.9255 69.8237 13.8796 69.8201L13.8795 69.8201C13.8303 69.826 13.7806 69.826 13.7315 69.8201L7.17142 68.0563C7.07072 68.1361 6.94557 68.1798 6.81621 68.1795C6.66513 68.1795 6.52025 68.1195 6.41343 68.0127C6.35753 67.9568 6.31445 67.8905 6.28608 67.8183L1.42186 66.5105C1.29759 66.4771 1.18828 66.4027 1.11174 66.2992C1.0352 66.1958 0.995929 66.0695 1.00033 65.9409L3.61648 2.94901C3.57784 2.86412 3.56023 2.77025 3.56639 2.67548C3.57621 2.52441 3.64564 2.38342 3.75941 2.28354C3.87318 2.18366 4.02196 2.13306 4.17304 2.14288L19.6611 1.00363C19.7066 0.99814 19.7525 0.99814 19.7979 1.00363L26.8995 2.18162C26.9857 2.17646 27.0712 2.19099 27.1499 2.22329C27.247 2.25235 27.3355 2.30704 27.4054 2.38279C27.508 2.49389 27.5622 2.64118 27.5562 2.79225C27.5541 2.84426 27.5449 2.89526 27.5293 2.94395ZM14.6898 3.1852L22.2814 2.5587L19.6782 2.14288L8.19236 3.01199L10.5812 3.52295L14.6898 3.1852ZM5.20761 3.52715L4.73708 3.42453L2.15667 65.5194L6.26291 66.6201L6.61115 45.5141C6.61115 45.3631 6.67116 45.2182 6.77799 45.1114C6.88481 45.0045 7.0297 44.9445 7.18077 44.9445C7.33185 44.9445 7.47673 45.0045 7.58355 45.1114C7.69038 45.2182 7.7504 45.3631 7.7504 45.5141L7.39778 66.9244L13.2693 68.4983L12.8634 60.6416L9.96127 4.57778L5.20761 3.52715ZM6.84067 41.958C6.9475 42.0648 7.09238 42.1248 7.24345 42.1248C7.39355 42.1249 7.53758 42.0656 7.64424 41.96C7.7509 41.8544 7.81158 41.711 7.81308 41.5609L8.00106 30.2994C8.00106 30.1483 7.94104 30.0035 7.83422 29.8966C7.72739 29.7898 7.5825 29.7298 7.43143 29.7298C7.28036 29.7298 7.13547 29.7898 7.02864 29.8966C6.92182 30.0035 6.86181 30.1483 6.86181 30.2994L6.67383 41.5552C6.67383 41.7063 6.73385 41.8512 6.84067 41.958Z" fill="#1D1D1B"/>
<path d="M11.1073 4.64394L11.0991 4.54428L11.0025 4.55223L11.0075 4.6491L11.1073 4.64394ZM14.4093 68.5498L14.3095 68.555L14.3156 68.6732L14.4311 68.6474L14.4093 68.5498ZM33.4348 64.3061L33.4566 64.4037L33.5445 64.3841L33.5341 64.2946L33.4348 64.3061ZM26.4146 3.38428L26.5139 3.37284L26.5028 3.27668L26.4064 3.28462L26.4146 3.38428ZM34.6424 64.682L34.5431 64.6935L34.5431 64.6936L34.6424 64.682ZM27.5293 2.94395L27.4341 2.91334L27.4274 2.93392L27.4299 2.9554L27.5293 2.94395ZM34.5418 65.0764L34.4601 65.0187L34.4601 65.0187L34.5418 65.0764ZM34.2038 65.3029L34.2256 65.4005L34.2261 65.4004L34.2038 65.3029ZM14.0163 69.8087L13.9945 69.711L13.9921 69.7116L14.0163 69.8087ZM13.8796 69.8201L13.8874 69.7204L13.8777 69.7196L13.868 69.7207L13.8796 69.8201ZM13.8795 69.8201L13.868 69.7207L13.8676 69.7208L13.8795 69.8201ZM13.7315 69.8201L13.7055 69.9166L13.7124 69.9185L13.7195 69.9193L13.7315 69.8201ZM7.17142 68.0563L7.19738 67.9598L7.14876 67.9467L7.10931 67.978L7.17142 68.0563ZM6.81621 68.1795L6.81645 68.0795H6.81621V68.1795ZM6.41343 68.0127L6.34271 68.0834L6.34271 68.0834L6.41343 68.0127ZM6.28608 67.8183L6.37914 67.7817L6.3607 67.7348L6.31204 67.7217L6.28608 67.8183ZM1.42186 66.5105L1.44782 66.414L1.4478 66.414L1.42186 66.5105ZM1.11174 66.2992L1.19212 66.2398L1.19212 66.2398L1.11174 66.2992ZM1.00033 65.9409L0.900418 65.9368L0.900393 65.9375L1.00033 65.9409ZM3.61648 2.94901L3.7164 2.95316L3.71739 2.92931L3.7075 2.90758L3.61648 2.94901ZM3.56639 2.67548L3.4666 2.66899L3.4666 2.66899L3.56639 2.67548ZM3.75941 2.28354L3.69343 2.20839L3.69343 2.20839L3.75941 2.28354ZM4.17304 2.14288L4.16649 2.24363L4.18037 2.24261L4.17304 2.14288ZM19.6611 1.00363L19.6685 1.10347L19.6732 1.10291L19.6611 1.00363ZM19.7979 1.00363L19.8142 0.90488L19.8099 0.904351L19.7979 1.00363ZM26.8995 2.18162L26.8831 2.28027L26.8942 2.28212L26.9055 2.28144L26.8995 2.18162ZM27.1499 2.22329L27.1117 2.31626L27.1212 2.3191L27.1499 2.22329ZM27.4054 2.38279L27.3319 2.45062L27.3319 2.45062L27.4054 2.38279ZM27.5562 2.79225L27.6561 2.79625L27.6561 2.79625L27.5562 2.79225ZM14.6898 3.1852L14.698 3.28486L14.698 3.28486L14.6898 3.1852ZM22.2814 2.5587L22.2897 2.65837L22.2972 2.45996L22.2814 2.5587ZM19.6782 2.14288L19.694 2.04413L19.6824 2.04228L19.6707 2.04316L19.6782 2.14288ZM8.19236 3.01199L8.18481 2.91227L8.17144 3.10978L8.19236 3.01199ZM10.5812 3.52295L10.5603 3.62074L10.5747 3.62382L10.5894 3.62262L10.5812 3.52295ZM5.20761 3.52715L5.2292 3.42951L5.22892 3.42945L5.20761 3.52715ZM4.73708 3.42453L4.75839 3.32682L4.64211 3.30146L4.63717 3.42037L4.73708 3.42453ZM2.15667 65.5194L2.05676 65.5152L2.05343 65.5952L2.13078 65.616L2.15667 65.5194ZM6.26291 66.6201L6.23702 66.7167L6.36079 66.7499L6.3629 66.6218L6.26291 66.6201ZM6.61115 45.5141L6.71115 45.5158V45.5141H6.61115ZM6.77799 45.1114L6.84869 45.1821L6.8487 45.1821L6.77799 45.1114ZM7.58355 45.1114L7.51284 45.1821L7.51284 45.1821L7.58355 45.1114ZM7.7504 45.5141L7.8504 45.5158V45.5141H7.7504ZM7.39778 66.9244L7.29779 66.9227L7.29651 67.0007L7.37189 67.0209L7.39778 66.9244ZM13.2693 68.4983L13.2434 68.5949L13.3763 68.6305L13.3692 68.4932L13.2693 68.4983ZM12.8634 60.6416L12.9632 60.6365L12.9632 60.6365L12.8634 60.6416ZM9.96127 4.57778L10.0611 4.57261L10.0572 4.49657L9.98285 4.48013L9.96127 4.57778ZM7.24345 42.1248L7.24346 42.0248H7.24345V42.1248ZM7.64424 41.96L7.57389 41.889L7.57389 41.889L7.64424 41.96ZM7.81308 41.5609L7.71309 41.5592L7.71308 41.5599L7.81308 41.5609ZM8.00106 30.2994L8.10106 30.3011V30.2994H8.00106ZM7.83422 29.8966L7.76351 29.9673L7.76351 29.9673L7.83422 29.8966ZM7.02864 29.8966L7.09936 29.9673L7.09936 29.9673L7.02864 29.8966ZM6.86181 30.2994L6.96181 30.3011V30.2994H6.86181ZM6.67383 41.5552L6.57383 41.5536V41.5552H6.67383ZM11.0075 4.6491L14.3095 68.555L14.5092 68.5446L11.2072 4.63878L11.0075 4.6491ZM14.4311 68.6474L33.4566 64.4037L33.413 64.2085L14.3875 68.4522L14.4311 68.6474ZM33.5341 64.2946L26.5139 3.37284L26.3152 3.39573L33.3355 64.3175L33.5341 64.2946ZM26.4064 3.28462L11.0991 4.54428L11.1155 4.74361L26.4228 3.48395L26.4064 3.28462ZM34.7417 64.6706L27.6286 2.93251L27.4299 2.9554L34.5431 64.6935L34.7417 64.6706ZM34.6235 65.1341C34.7186 64.9994 34.7607 64.8343 34.7417 64.6705L34.5431 64.6936C34.5564 64.8084 34.5269 64.9242 34.4601 65.0187L34.6235 65.1341ZM34.2261 65.4004C34.3869 65.3636 34.5284 65.2687 34.6235 65.1341L34.4601 65.0187C34.3934 65.1131 34.2942 65.1796 34.1815 65.2055L34.2261 65.4004ZM14.0381 69.9063L34.2256 65.4005L34.182 65.2053L13.9945 69.7111L14.0381 69.9063ZM13.8717 69.9197C13.9284 69.9242 13.9854 69.9194 14.0405 69.9057L13.9921 69.7116C13.9579 69.7202 13.9225 69.7231 13.8874 69.7204L13.8717 69.9197ZM13.891 69.9194L13.8911 69.9194L13.868 69.7207L13.868 69.7207L13.891 69.9194ZM13.7195 69.9193C13.7766 69.9262 13.8343 69.9262 13.8914 69.9193L13.8676 69.7208C13.8263 69.7257 13.7846 69.7257 13.7434 69.7208L13.7195 69.9193ZM7.14545 68.1529L13.7055 69.9166L13.7574 69.7235L7.19738 67.9598L7.14545 68.1529ZM6.81597 68.2795C6.96804 68.2799 7.11516 68.2285 7.23353 68.1347L7.10931 67.978C7.02629 68.0438 6.92311 68.0798 6.81645 68.0795L6.81597 68.2795ZM6.34271 68.0834C6.46829 68.209 6.63861 68.2795 6.81621 68.2795V68.0795C6.69166 68.0795 6.57221 68.0301 6.48414 67.942L6.34271 68.0834ZM6.19301 67.8549C6.22636 67.9397 6.27701 68.0177 6.34271 68.0834L6.48414 67.942C6.43805 67.8959 6.40254 67.8412 6.37914 67.7817L6.19301 67.8549ZM1.3959 66.6071L6.26011 67.9149L6.31204 67.7217L1.44782 66.414L1.3959 66.6071ZM1.03135 66.3587C1.12133 66.4803 1.24983 66.5679 1.39592 66.6071L1.4478 66.414C1.34535 66.3864 1.25523 66.325 1.19212 66.2398L1.03135 66.3587ZM0.900393 65.9375C0.895214 66.0887 0.941373 66.2371 1.03135 66.3587L1.19212 66.2398C1.12902 66.1545 1.09664 66.0504 1.10028 65.9443L0.900393 65.9375ZM3.51657 2.94486L0.90042 65.9368L1.10025 65.9451L3.7164 2.95316L3.51657 2.94486ZM3.7075 2.90758C3.67562 2.83756 3.6611 2.76013 3.66618 2.68197L3.4666 2.66899C3.45936 2.78037 3.48006 2.89069 3.52547 2.99044L3.7075 2.90758ZM3.66618 2.68197C3.67428 2.55736 3.73154 2.44107 3.82538 2.35869L3.69343 2.20839C3.55973 2.32577 3.47814 2.49145 3.4666 2.66899L3.66618 2.68197ZM3.82538 2.35869C3.91922 2.2763 4.04194 2.23457 4.16655 2.24267L4.17952 2.04309C4.00198 2.03155 3.82713 2.09101 3.69343 2.20839L3.82538 2.35869ZM4.18037 2.24261L19.6685 1.10336L19.6538 0.903897L4.1657 2.04315L4.18037 2.24261ZM19.6732 1.10291C19.7106 1.09838 19.7484 1.09838 19.7859 1.10291L19.8099 0.904351C19.7565 0.897899 19.7025 0.897899 19.6491 0.904351L19.6732 1.10291ZM19.7815 1.10228L26.8831 2.28027L26.9159 2.08297L19.8142 0.904976L19.7815 1.10228ZM27.1879 2.13079C27.0954 2.09281 26.9948 2.07573 26.8935 2.0818L26.9055 2.28144C26.9765 2.27719 27.047 2.28916 27.1119 2.3158L27.1879 2.13079ZM27.1212 2.3191C27.2013 2.34306 27.2743 2.38816 27.3319 2.45062L27.4789 2.31496C27.3967 2.22592 27.2927 2.16164 27.1786 2.12749L27.1212 2.3191ZM27.3319 2.45062C27.4165 2.54223 27.4612 2.66368 27.4562 2.78825L27.6561 2.79625C27.6632 2.61867 27.5995 2.44555 27.4789 2.31496L27.3319 2.45062ZM27.4562 2.78825C27.4545 2.83115 27.447 2.87319 27.4341 2.91334L27.6245 2.97456C27.6429 2.91732 27.6536 2.85738 27.6561 2.79625L27.4562 2.78825ZM14.698 3.28486L22.2897 2.65837L22.2732 2.45904L14.6816 3.08554L14.698 3.28486ZM22.2972 2.45996L19.694 2.04413L19.6625 2.24163L22.2657 2.65745L22.2972 2.45996ZM19.6707 2.04316L8.18481 2.91227L8.1999 3.1117L19.6858 2.24259L19.6707 2.04316ZM10.6021 3.42516L8.21328 2.9142L8.17144 3.10978L10.5603 3.62074L10.6021 3.42516ZM14.6816 3.08553L10.573 3.42329L10.5894 3.62262L14.698 3.28486L14.6816 3.08553ZM5.22892 3.42945L4.75839 3.32682L4.71577 3.52223L5.18631 3.62486L5.22892 3.42945ZM4.63717 3.42037L2.05676 65.5152L2.25659 65.5235L4.83699 3.42868L4.63717 3.42037ZM2.13078 65.616L6.23702 66.7167L6.28881 66.5235L2.18257 65.4228L2.13078 65.616ZM6.3629 66.6218L6.71113 45.5158L6.51116 45.5125L6.16293 66.6185L6.3629 66.6218ZM6.71115 45.5141C6.71115 45.3896 6.76062 45.2701 6.84869 45.1821L6.70728 45.0406C6.58169 45.1662 6.51115 45.3366 6.51115 45.5141H6.71115ZM6.8487 45.1821C6.93677 45.094 7.05622 45.0445 7.18077 45.0445V44.8445C7.00318 44.8445 6.83285 44.9151 6.70727 45.0406L6.8487 45.1821ZM7.18077 45.0445C7.30532 45.0445 7.42477 45.094 7.51284 45.1821L7.65426 45.0406C7.52869 44.9151 7.35837 44.8445 7.18077 44.8445V45.0445ZM7.51284 45.1821C7.60092 45.2701 7.6504 45.3896 7.6504 45.5141H7.8504C7.8504 45.3365 7.77984 45.1662 7.65426 45.0406L7.51284 45.1821ZM7.65041 45.5125L7.29779 66.9227L7.49777 66.926L7.85038 45.5158L7.65041 45.5125ZM7.37189 67.0209L13.2434 68.5949L13.2952 68.4017L7.42367 66.8278L7.37189 67.0209ZM13.3692 68.4932L12.9632 60.6365L12.7635 60.6468L13.1694 68.5035L13.3692 68.4932ZM12.9632 60.6365L10.0611 4.57261L9.8614 4.58295L12.7635 60.6468L12.9632 60.6365ZM9.98285 4.48013L5.2292 3.42951L5.18603 3.6248L9.93969 4.67542L9.98285 4.48013ZM7.24345 42.0248C7.1189 42.0248 6.99945 41.9754 6.91138 41.8873L6.76996 42.0287C6.89554 42.1543 7.06586 42.2248 7.24345 42.2248V42.0248ZM7.57389 41.889C7.48595 41.976 7.3672 42.0249 7.24346 42.0248L7.24345 42.2248C7.41989 42.2249 7.58921 42.1552 7.7146 42.0311L7.57389 41.889ZM7.71308 41.5599C7.71185 41.6837 7.66182 41.8019 7.57389 41.889L7.71459 42.0311C7.83998 41.907 7.91131 41.7383 7.91307 41.5619L7.71308 41.5599ZM7.90107 30.2978L7.71309 41.5592L7.91306 41.5626L8.10104 30.3011L7.90107 30.2978ZM7.76351 29.9673C7.85158 30.0554 7.90106 30.1749 7.90106 30.2994H8.10106C8.10106 30.1218 8.03051 29.9515 7.90493 29.8259L7.76351 29.9673ZM7.43143 29.8298C7.55598 29.8298 7.67543 29.8793 7.76351 29.9673L7.90493 29.8259C7.77935 29.7003 7.60903 29.6298 7.43143 29.6298V29.8298ZM7.09936 29.9673C7.18743 29.8793 7.30688 29.8298 7.43143 29.8298V29.6298C7.25384 29.6298 7.08351 29.7003 6.95793 29.8259L7.09936 29.9673ZM6.96181 30.2994C6.96181 30.1749 7.01128 30.0554 7.09936 29.9673L6.95793 29.8259C6.83235 29.9515 6.76181 30.1218 6.76181 30.2994H6.96181ZM6.77381 41.5569L6.96179 30.3011L6.76182 30.2978L6.57384 41.5536L6.77381 41.5569ZM6.91138 41.8873C6.82331 41.7992 6.77383 41.6798 6.77383 41.5552H6.57383C6.57383 41.7328 6.64438 41.9031 6.76996 42.0287L6.91138 41.8873Z" fill="black" mask="url(#path-1-outside-1)"/>
</svg>
