<svg width="70" height="40" viewBox="0 0 70 40" fill="none" xmlns="http://www.w3.org/2000/svg">
<path d="M64.2126 0.653809H57.4323C56.866 0.653809 56.4069 1.11277 56.4069 1.6792C56.4069 2.24563 56.866 2.70459 57.4323 2.70459H64.2126C66.273 2.70459 67.9491 4.38076 67.9491 6.44111V7.8165C67.9491 7.93791 67.8504 8.03662 67.729 8.03662H46.0058V7.43014C46.0058 6.03068 44.8672 4.89209 43.4677 4.89209H26.5321C25.1327 4.89209 23.9941 6.03068 23.9941 7.43014V8.03662H19.137C18.5707 8.03662 18.1116 8.49559 18.1116 9.06201C18.1116 9.62844 18.5707 10.0874 19.137 10.0874H24.0235C24.2467 11.8578 25.7607 13.2319 27.5907 13.2319H42.409C44.239 13.2319 45.753 11.8578 45.9762 10.0874H63.1648L59.689 29.1208C59.5873 29.678 59.9564 30.212 60.5136 30.3138C60.5759 30.3252 60.6378 30.3307 60.6989 30.3307C61.1846 30.3307 61.6161 29.9842 61.7064 29.4894L63.4262 20.0721H64.9059C66.5847 20.0721 67.9506 18.7063 67.9506 17.0272V10.0762C69.0992 9.96449 70 8.99393 70 7.8165V6.44111C69.9999 3.24996 67.4038 0.653809 64.2126 0.653809ZM43.955 9.63514C43.955 10.4876 43.2614 11.1812 42.409 11.1812H27.5909C26.7384 11.1812 26.0448 10.4877 26.0448 9.63514V7.43014C26.0448 7.16135 26.2635 6.94287 26.5321 6.94287H43.4677C43.7364 6.94287 43.955 7.16148 43.955 7.43014V9.63514ZM65.8997 17.0272C65.8997 17.5754 65.4539 18.0213 64.9058 18.0213H63.8007L65.2495 10.0875H65.8996V17.0272H65.8997Z" fill="black"/>
<path d="M60.0961 32.6001C59.5392 32.4983 59.0049 32.8673 58.9031 33.4245L58.539 35.4178C58.3406 36.5052 57.3941 37.2944 56.2885 37.2944H13.7115C12.6057 37.2944 11.6592 36.5053 11.4609 35.4176L6.83512 10.0874H14.3976C14.9639 10.0874 15.423 9.62844 15.423 9.06201C15.423 8.49559 14.9639 8.03662 14.3976 8.03662H2.2709C2.14949 8.03662 2.05078 7.93777 2.05078 7.8165V6.44111C2.05078 4.38076 3.72695 2.70459 5.7873 2.70459H52.6157C53.182 2.70459 53.6411 2.24563 53.6411 1.6792C53.6411 1.11277 53.182 0.653809 52.6157 0.653809H5.7873C2.59615 0.653809 0 3.24996 0 6.44111V7.8165C0 9.01061 0.926953 9.99006 2.09863 10.0787V17.0272C2.09863 18.7062 3.46445 20.0721 5.14336 20.0721H6.57371L9.4433 35.786C9.81955 37.8484 11.6145 39.3454 13.7114 39.3454H56.2883C58.3852 39.3454 60.1802 37.8484 60.5564 35.7863L60.9205 33.7932C61.0222 33.2358 60.6532 32.7018 60.0961 32.6001ZM5.14336 18.0212C4.59525 18.0212 4.14941 17.5752 4.14941 17.0271V10.0874H4.75043L6.19924 18.0212H5.14336Z" fill="black"/>
</svg>
