<svg width="60" height="34" viewBox="0 0 60 34" fill="none" xmlns="http://www.w3.org/2000/svg">
<path d="M1.75781 13.0151V11.1542V5.13193V2.17529H46.6376C47.123 2.17529 47.5165 1.78178 47.5165 1.29639C47.5165 0.810996 47.123 0.41748 46.6376 0.41748H0.878906C0.393516 0.41748 0 0.810996 0 1.29639V13.0151C0 16.7902 1.36313 20.4357 3.83836 23.2802C4.01215 23.4799 4.25625 23.5822 4.50176 23.5822C4.70637 23.5822 4.91191 23.5112 5.07832 23.3663C5.44453 23.0477 5.48309 22.4924 5.16434 22.1263C2.96766 19.6018 1.75781 16.366 1.75781 13.0151Z" fill="black"/>
<path d="M59.121 0.41748H50.7361C50.2507 0.41748 49.8572 0.810996 49.8572 1.29639C49.8572 1.78178 50.2507 2.17529 50.7361 2.17529H58.2421V13.0151C58.2421 13.8437 58.1688 14.6554 58.029 15.4444C57.9047 16.0019 57.6442 17.1338 57.5965 17.2022C57.2602 18.2635 56.8001 19.2701 56.2323 20.2046C55.8111 20.9487 54.9608 21.9214 54.9664 21.9625C52.4171 24.9812 48.6067 26.902 44.3555 26.902H15.6445C12.8221 26.902 10.1055 26.0603 7.78898 24.4681C7.38902 24.1932 6.84175 24.2947 6.56683 24.6946C6.29191 25.0947 6.3934 25.6419 6.79336 25.9168C9.30785 27.6449 12.2398 28.5858 15.293 28.6532V31.5187C15.293 32.6562 16.2184 33.5817 17.3559 33.5817H34.378C34.8634 33.5817 35.2569 33.1881 35.2569 32.7028C35.2569 32.2174 34.8634 31.8238 34.378 31.8238H17.3558C17.1875 31.8238 17.0507 31.687 17.0507 31.5187V28.6597H42.9491V31.5186C42.9491 31.6869 42.8122 31.8237 42.6439 31.8237H38.4403C37.9549 31.8237 37.5614 32.2172 37.5614 32.7026C37.5614 33.188 37.9549 33.5815 38.4403 33.5815H42.6439C43.7815 33.5815 44.7069 32.6561 44.7069 31.5186V28.6551C53.1716 28.4676 59.9999 21.524 59.9999 13.0151V1.29639C59.9999 0.810996 59.6064 0.41748 59.121 0.41748Z" fill="black"/>
</svg>
