<svg width="170" height="46" viewBox="0 0 170 46" fill="none" xmlns="http://www.w3.org/2000/svg">
<path d="M169.976 38.1587H0V0.171021H170V38.1587H169.976ZM2.2781 35.9804H167.673V2.32277H2.2781V35.9804Z" fill="black"/>
<path d="M10.9009 11.1168H13.5954V17.9971H20.8951V11.1168H23.5896V27.6933H20.8951V20.7067H13.5954V27.6933H10.9009V11.1168Z" fill="black"/>
<path d="M27.0923 19.404C27.0923 14.7286 30.3992 10.8501 35.1023 10.8501C39.8055 10.8501 43.0634 14.702 43.0634 19.404C43.0634 24.0528 39.7565 27.9578 35.0534 27.9578C30.3502 27.9578 27.0923 24.1059 27.0923 19.404ZM40.2464 19.404C40.2464 16.1896 38.0908 13.5066 35.0534 13.5066C32.0159 13.5066 29.9093 16.1365 29.9093 19.404C29.9093 22.6183 32.0649 25.3014 35.1023 25.3014C38.1398 25.2748 40.2464 22.6449 40.2464 19.404Z" fill="black"/>
<path d="M44.5826 11.1166H47.4731L51.123 23.3896L54.8708 11.0635H57.1489L60.8968 23.3896L64.5466 11.1166H67.3636L62.048 27.7993H59.7455L55.9976 15.8983L52.2498 27.7993H49.9472L44.5826 11.1166Z" fill="black"/>
<path d="M81.2773 13.7998H76.4272V11.0902H88.822V13.7998H83.9718V27.6667H81.2773V13.7998Z" fill="black"/>
<path d="M90.4383 19.404C90.4383 14.7286 93.7452 10.8501 98.4484 10.8501C103.152 10.8501 106.409 14.702 106.409 19.404C106.409 24.0528 103.103 27.9578 98.3994 27.9578C93.7207 27.9578 90.4383 24.1059 90.4383 19.404ZM103.592 19.404C103.592 16.1896 101.437 13.5066 98.3994 13.5066C95.3619 13.5066 93.2553 16.1365 93.2553 19.404C93.2553 22.6183 95.4109 25.3014 98.4484 25.3014C101.486 25.2748 103.592 22.6449 103.592 19.404Z" fill="black"/>
<path d="M117.09 11.1168H128.407V13.7202H119.76V18.0237H127.427V20.627H119.76V25.0634H128.505V27.6667H117.09V11.1168Z" fill="black"/>
<path d="M137.617 10.9836H140.116L146.828 27.6664H143.986L142.443 23.6551H135.217L133.649 27.6664H130.905L137.617 10.9836ZM141.463 21.1048L138.818 14.4902L136.197 21.1048H141.463Z" fill="black"/>
<path d="M151.31 13.7998H146.484V11.0902H158.879V13.7998H154.029V27.6667H151.335V13.7998H151.31Z" fill="black"/>
<path d="M125.418 43.4457H124.757V42.4363H124.046V45.0396H124.757V44.0833H125.418V45.0396H126.128V42.4363H125.418V43.4457Z" fill="black"/>
<path d="M128.358 42.3826C127.525 42.3826 127.06 43.0467 127.06 43.7639C127.06 44.4812 127.525 45.1453 128.358 45.1453C129.191 45.1453 129.656 44.4812 129.656 43.7639C129.656 43.0201 129.166 42.3826 128.358 42.3826ZM128.358 44.4015C127.991 44.4015 127.77 44.0827 127.77 43.7374C127.77 43.392 127.991 43.0733 128.358 43.0733C128.726 43.0733 128.946 43.392 128.946 43.7374C128.921 44.0827 128.726 44.4015 128.358 44.4015Z" fill="black"/>
<path d="M132.987 44.003L132.571 42.4357H132.008L131.591 44.003L131.15 42.4357H130.415L131.273 45.039H131.885L132.277 43.6311L132.694 45.039H133.306L134.163 42.4357H133.428L132.987 44.003Z" fill="black"/>
<path d="M136.466 43.0998H136.956V45.039H137.666V43.0998H138.156V42.4357H136.466V43.0998Z" fill="black"/>
<path d="M140.385 42.3826C139.553 42.3826 139.087 43.0467 139.087 43.7639C139.087 44.4812 139.553 45.1453 140.385 45.1453C141.218 45.1453 141.684 44.4812 141.684 43.7639C141.684 43.0201 141.194 42.3826 140.385 42.3826ZM140.385 44.4015C140.018 44.4015 139.797 44.0827 139.797 43.7374C139.797 43.392 140.018 43.0733 140.385 43.0733C140.753 43.0733 140.973 43.392 140.973 43.7374C140.949 44.0827 140.753 44.4015 140.385 44.4015Z" fill="black"/>
<path d="M149.816 43.4186C149.816 42.8873 149.473 42.4357 148.91 42.4357H147.759V45.039H148.469V44.3749H148.592L149.008 45.039H149.841L149.351 44.2421C149.645 44.0827 149.816 43.7639 149.816 43.4186ZM148.763 43.7905H148.469V43.0467H148.763C148.959 43.0467 149.082 43.2061 149.082 43.4186C149.082 43.6045 148.959 43.7905 148.763 43.7905Z" fill="black"/>
<path d="M150.894 45.039H152.437V44.4546H151.604V44.0296H152.437V43.4717H151.604V43.0201H152.437V42.4357H150.894V45.039Z" fill="black"/>
<path d="M153.662 45.039H155.205V44.4546H154.372V44.0296H155.205V43.4717H154.372V43.0201H155.205V42.4357H153.662V45.039Z" fill="black"/>
<path d="M157.949 42.4357V43.9764L157.165 42.4357H156.43V45.039H157.141V43.5514L157.925 45.039H158.66V42.4357H157.949Z" fill="black"/>
<path d="M145.824 43.6045H145.334V44.1093H145.726C145.726 44.1624 145.701 44.2155 145.677 44.2687C145.579 44.4015 145.432 44.4812 145.26 44.4812C145.187 44.4812 145.138 44.4812 145.089 44.4546C144.917 44.4015 144.795 44.2421 144.721 44.0561C144.697 43.9764 144.672 43.8702 144.672 43.7639C144.672 43.6842 144.672 43.6045 144.697 43.5248C144.77 43.2592 144.966 43.0467 145.236 43.0467C145.432 43.0467 145.603 43.1529 145.701 43.3123H146.411V43.2858C146.338 42.781 145.897 42.3826 145.236 42.3826C144.427 42.3826 143.986 43.0467 143.986 43.7639C143.986 44.3749 144.305 44.9328 144.893 45.0922C145.015 45.1187 145.113 45.1453 145.26 45.1453C146.068 45.1453 146.509 44.4812 146.509 43.7639C146.509 43.7108 146.509 43.6577 146.509 43.6311H145.824V43.6045Z" fill="black"/>
<path d="M117.751 45.0395H117.089V42.4362H117.751V43.4722C117.824 43.3128 118.02 43.1534 118.265 43.1534C118.731 43.1534 119.049 43.5519 119.049 44.1097C119.049 44.6942 118.731 45.0661 118.265 45.0661C118.02 45.0661 117.8 44.9067 117.751 44.7473V45.0395ZM118.388 44.1363C118.388 43.9238 118.265 43.7644 118.069 43.7644C117.873 43.7644 117.751 43.9238 117.751 44.1363C117.751 44.3223 117.873 44.5082 118.069 44.5082C118.265 44.4817 118.388 44.3223 118.388 44.1363Z" fill="black"/>
<path d="M119.417 45.6498C119.294 45.5436 119.172 45.3576 119.172 45.1186H119.833C119.833 45.2779 119.931 45.3576 120.078 45.3576C120.25 45.3576 120.348 45.2779 120.348 45.0389V44.6935C120.25 44.8795 120.078 45.0123 119.809 45.0123C119.588 45.0123 119.417 44.9326 119.343 44.8263C119.221 44.6935 119.196 44.5076 119.196 44.2153V43.1793H119.858V44.1091C119.858 44.3216 119.931 44.4544 120.078 44.4544C120.25 44.4544 120.323 44.3216 120.323 44.0825V43.1793H120.985V44.9592C120.985 45.2779 120.887 45.517 120.74 45.6233C120.568 45.7561 120.397 45.8092 120.054 45.8092C119.784 45.8358 119.588 45.8092 119.417 45.6498Z" fill="black"/>
</svg>
