<svg width="170" height="46" viewBox="0 0 170 46" fill="none" xmlns="http://www.w3.org/2000/svg">
<g clip-path="url(#clip0)">
<path d="M169.976 38.1587H0V0.171021H170V38.1587H169.976ZM2.2781 35.9804H167.673V2.32277H2.2781V35.9804Z" fill="black"/>
<path d="M10.9009 11.1168H13.5954V17.9971H20.8951V11.1168H23.5896V27.6932H20.8951V20.7067H13.5954V27.6932H10.9009V11.1168Z" fill="black"/>
<path d="M27.0923 19.4039C27.0923 14.7285 30.3992 10.85 35.1023 10.85C39.8055 10.85 43.0634 14.7019 43.0634 19.4039C43.0634 24.0528 39.7565 27.9578 35.0534 27.9578C30.3502 27.9578 27.0923 24.1059 27.0923 19.4039ZM40.2464 19.4039C40.2464 16.1896 38.0908 13.5065 35.0534 13.5065C32.0159 13.5065 29.9093 16.1364 29.9093 19.4039C29.9093 22.6183 32.0649 25.3013 35.1023 25.3013C38.1398 25.2747 40.2464 22.6448 40.2464 19.4039Z" fill="black"/>
<path d="M44.5826 11.1166H47.4731L51.123 23.3895L54.8708 11.0634H57.1489L60.8968 23.3895L64.5466 11.1166H67.3636L62.048 27.7993H59.7455L55.9976 15.8982L52.2498 27.7993H49.9472L44.5826 11.1166Z" fill="black"/>
<path d="M81.2773 13.7997H76.4272V11.0901H88.822V13.7997H83.9718V27.6666H81.2773V13.7997Z" fill="black"/>
<path d="M90.4383 19.4039C90.4383 14.7285 93.7452 10.85 98.4484 10.85C103.152 10.85 106.409 14.7019 106.409 19.4039C106.409 24.0528 103.103 27.9578 98.3994 27.9578C93.7207 27.9578 90.4383 24.1059 90.4383 19.4039ZM103.592 19.4039C103.592 16.1896 101.437 13.5065 98.3994 13.5065C95.3619 13.5065 93.2553 16.1364 93.2553 19.4039C93.2553 22.6183 95.4109 25.3013 98.4484 25.3013C101.486 25.2747 103.592 22.6448 103.592 19.4039Z" fill="black"/>
<path d="M117.09 11.1168H128.407V13.7202H119.76V18.0237H127.427V20.627H119.76V25.0633H128.505V27.6667H117.09V11.1168Z" fill="black"/>
<path d="M137.617 10.9836H140.116L146.828 27.6663H143.986L142.443 23.655H135.217L133.649 27.6663H130.905L137.617 10.9836ZM141.463 21.1048L138.818 14.4902L136.197 21.1048H141.463Z" fill="black"/>
<path d="M151.31 13.7997H146.484V11.0901H158.879V13.7997H154.029V27.6666H151.335V13.7997H151.31Z" fill="black"/>
</g>
<defs>
<clipPath id="clip0">
<rect width="170" height="45.6473" fill="white" transform="translate(0 0.171021)"/>
</clipPath>
</defs>
</svg>
